<svg xmlns="http://www.w3.org/2000/svg" width="600" height="499" viewBox="0 0 600 499" version="1.1"><path d="M 228.500 143 C 231.209 145.750, 233.650 148, 233.925 148 C 234.200 148, 232.209 145.750, 229.500 143 C 226.791 140.250, 224.350 138, 224.075 138 C 223.800 138, 225.791 140.250, 228.500 143 M 191.376 165.048 C 183.194 173.325, 176.336 180.567, 176.135 181.142 C 175.935 181.717, 182.640 175.171, 191.036 166.594 C 202.415 154.969, 206.917 151, 208.721 151 C 210.434 151, 213.493 153.409, 219.198 159.250 L 227.256 167.500 220.453 159.692 C 213.343 151.531, 211.407 150, 208.192 150 C 207.018 150, 200.383 155.938, 191.376 165.048 M 174.777 156.195 C 173.279 157.940, 166.518 165.023, 159.751 171.934 C 139.482 192.637, 129.608 203, 130.150 203 C 130.432 203, 141.579 191.750, 154.920 178 C 168.262 164.250, 178.800 153.005, 178.339 153.010 C 177.878 153.016, 176.275 154.449, 174.777 156.195 M 243 157.970 C 243 158.472, 243.402 159.130, 243.892 159.433 C 244.383 159.737, 255.691 171.261, 269.021 185.043 L 293.258 210.100 292.636 214.800 C 292.209 218.025, 292.320 219.029, 292.991 218 C 293.529 217.175, 293.976 214.991, 293.985 213.146 C 293.998 210.245, 292.618 208.352, 283.781 199.146 C 257.732 172.009, 243 157.134, 243 157.970 M 233.172 173.500 C 236.286 176.800, 240.234 181.024, 241.946 182.887 C 243.658 184.750, 245.257 186.077, 245.498 185.835 C 245.740 185.594, 241.791 181.369, 236.723 176.448 C 231.656 171.527, 230.058 170.200, 233.172 173.500 M 160 197.500 C 154.245 203.275, 149.978 207.939, 150.518 207.864 C 151.512 207.726, 171.788 187, 170.929 187 C 170.673 187, 165.755 191.725, 160 197.500 M 265.500 207 C 270.427 211.950, 274.683 216, 274.958 216 C 275.233 216, 271.427 211.950, 266.500 207 C 261.573 202.050, 257.317 198, 257.042 198 C 256.767 198, 260.573 202.050, 265.500 207 M 124.725 211.750 C 123.835 213.748, 123.423 226.250, 123.219 257.441 C 122.951 298.258, 123.536 309.977, 125.911 311.445 C 126.338 311.709, 126.083 309.594, 125.344 306.745 C 123.362 299.103, 123.411 220.275, 125.402 213.659 C 126.959 208.487, 126.613 207.513, 124.725 211.750 M 296.455 258 C 296.455 279.725, 296.587 288.613, 296.749 277.750 C 296.910 266.887, 296.910 249.112, 296.749 238.250 C 296.587 227.387, 296.455 236.275, 296.455 258 M 141.457 260.500 C 141.456 283.050, 141.588 292.418, 141.749 281.317 C 141.909 270.216, 141.910 251.766, 141.749 240.317 C 141.589 228.868, 141.457 237.950, 141.457 260.500 M 281.970 222.398 C 283.176 222.937, 285.280 222.914, 287.239 222.339 C 290.284 221.446, 290.151 221.387, 285.231 221.441 C 281.261 221.486, 280.457 221.721, 281.970 222.398 M 327.073 230.635 C 324.798 233.527, 324.384 236.501, 326.107 237.566 C 326.849 238.025, 326.996 237.562, 326.552 236.163 C 324.472 229.612, 334.639 226.289, 337.084 232.721 C 338.616 236.749, 335.800 240.312, 331.482 239.808 C 329.644 239.594, 328.360 239.774, 328.629 240.209 C 329.780 242.071, 334.909 240.931, 336.927 238.365 C 339.613 234.951, 339.540 233.449, 336.545 230.455 C 333.322 227.231, 329.695 227.300, 327.073 230.635 M 274 236 C 272.875 236.727, 273.375 236.969, 276 236.969 C 278.625 236.969, 279.125 236.727, 278 236 C 277.175 235.467, 276.275 235.031, 276 235.031 C 275.725 235.031, 274.825 235.467, 274 236 M 287.500 250.005 C 287.500 257.049, 287.831 262.292, 288.235 261.656 C 288.639 261.020, 288.969 255.775, 288.969 250 C 288.969 244.225, 288.639 238.982, 288.235 238.349 C 287.831 237.716, 287.500 242.961, 287.500 250.005 M 280.945 239.685 C 282.316 242.522, 280.801 246.611, 278.057 247.482 C 273.533 248.918, 269.204 245.085, 270.552 240.837 C 270.996 239.438, 270.849 238.975, 270.107 239.434 C 266.953 241.383, 271.646 249, 276 249 C 278.337 249, 283 244.828, 283 242.737 C 283 241.992, 282.300 240.509, 281.445 239.441 C 279.943 237.566, 279.926 237.574, 280.945 239.685 M 327.455 246.455 C 323.953 249.956, 324.575 254.859, 328.722 256.444 C 330.075 256.961, 329.962 256.622, 328.250 255.023 C 324.611 251.625, 325.524 247.551, 330.400 245.428 C 332.345 244.581, 332.831 244.064, 331.705 244.039 C 330.717 244.018, 328.805 245.105, 327.455 246.455 M 381.975 245.658 C 382.599 245.968, 383 251.418, 383 259.583 L 383 273 374.691 273 C 368.620 273, 365.859 273.424, 364.441 274.574 C 363.374 275.440, 363.175 275.777, 364 275.324 C 364.825 274.871, 369.550 274.275, 374.500 274 L 383.500 273.500 383.500 259.583 C 383.500 249.106, 383.185 245.603, 382.225 245.408 C 381.524 245.266, 381.411 245.379, 381.975 245.658 M 337.072 248.690 C 337.912 250.898, 337.712 251.899, 335.955 254.275 C 333.926 257.019, 333.917 257.115, 335.792 256.111 C 338.259 254.791, 339.391 250.600, 337.989 247.979 C 336.452 245.108, 335.879 245.553, 337.072 248.690 M 318.432 273 C 318.432 286.475, 318.574 291.988, 318.747 285.250 C 318.920 278.512, 318.920 267.488, 318.747 260.750 C 318.574 254.012, 318.432 259.525, 318.432 273 M 270.557 255.223 C 268.600 258.016, 268.586 260.084, 270.506 262.559 C 271.910 264.369, 271.944 264.311, 271.006 261.685 C 269.628 257.830, 269.708 257.292, 272 255 C 273.100 253.900, 273.576 253, 273.057 253 C 272.538 253, 271.413 254, 270.557 255.223 M 281.025 256.565 C 281.682 258.295, 281.648 259.789, 280.919 261.151 C 280.324 262.262, 280.087 263.420, 280.391 263.724 C 281.602 264.935, 282.934 258.956, 282 256.500 C 281.477 255.125, 280.825 254, 280.550 254 C 280.275 254, 280.488 255.154, 281.025 256.565 M 308.076 258.009 L 304.651 260.937 306.532 264.429 C 307.566 266.350, 308.588 267.745, 308.804 267.530 C 309.019 267.315, 308.410 265.810, 307.451 264.186 L 305.707 261.234 309.103 258.146 C 313.416 254.226, 312.624 254.120, 308.076 258.009 M 277.525 273.376 C 268.908 282.137, 270.169 281.525, 280.325 272.017 C 284.179 268.409, 288.195 263.504, 286.785 264.126 C 286.628 264.195, 282.461 268.357, 277.525 273.376 M 363 266.014 C 361.945 266.706, 362.538 266.807, 365 266.355 C 369.313 265.564, 370.126 264.995, 366.917 265.015 C 365.587 265.024, 363.825 265.473, 363 266.014 M 332 269.879 C 330.625 271.419, 328.825 272.915, 328 273.203 C 327.175 273.491, 326.769 274.019, 327.097 274.377 C 327.869 275.218, 332.706 271.418, 334.042 268.922 C 335.425 266.337, 334.971 266.550, 332 269.879 M 355.368 271.368 C 352.966 273.771, 351.002 276.359, 351.004 277.118 C 351.006 277.878, 351.855 277.110, 352.892 275.410 C 353.928 273.711, 356.289 271.128, 358.138 269.671 C 359.987 268.214, 361.103 267.017, 360.618 267.011 C 360.134 267.005, 357.771 268.966, 355.368 271.368 M 281.500 280.691 C 276.368 285.528, 275.861 286.191, 279.602 283.175 C 282.408 280.913, 285.333 278.300, 286.102 277.370 C 287.323 275.893, 287.570 277.061, 288.052 286.589 L 288.605 297.500 288.802 285.750 C 288.911 279.288, 288.887 274.021, 288.750 274.046 C 288.613 274.072, 285.350 277.062, 281.500 280.691 M 266.526 285.950 C 265.687 287.573, 265.039 289.711, 265.086 290.700 C 265.143 291.897, 265.432 291.643, 265.948 289.942 C 266.375 288.534, 267.252 286.397, 267.897 285.192 C 268.543 283.986, 268.841 283, 268.561 283 C 268.281 283, 267.365 284.328, 266.526 285.950 M 358.030 286.615 C 357.985 288.266, 361.834 292.849, 364.328 294.116 C 365.771 294.849, 365.442 294.260, 363.344 292.360 C 361.609 290.787, 359.710 288.600, 359.125 287.500 C 358.540 286.400, 358.047 286.002, 358.030 286.615 M 350.570 290 C 351.206 292.255, 355 298.025, 355 296.737 C 355 296.444, 353.845 294.246, 352.433 291.852 C 350.907 289.266, 350.151 288.514, 350.570 290 M 392 294.795 C 392 295.406, 393.153 296.715, 394.562 297.703 C 395.972 298.691, 398.559 300.564, 400.312 301.864 C 403.166 303.979, 403.133 303.903, 400 301.135 C 398.075 299.435, 395.488 297.062, 394.250 295.863 C 393.012 294.664, 392 294.183, 392 294.795 M 264.286 300.500 C 264.294 303.250, 264.488 304.256, 264.718 302.736 C 264.947 301.216, 264.941 298.966, 264.704 297.736 C 264.467 296.506, 264.279 297.750, 264.286 300.500 M 145.766 307.886 L 149.032 311 206.934 311 C 238.780 311, 265.661 311.267, 266.668 311.594 C 268.192 312.089, 268.248 312.007, 267 311.110 C 265.968 310.368, 247.332 310.026, 207.327 310.015 L 149.153 310 145.827 307.386 L 142.500 304.773 145.766 307.886 M 339.558 309.907 C 339.249 310.405, 339.877 310.583, 340.953 310.302 C 342.436 309.914, 343.280 310.601, 344.444 313.145 C 345.472 315.390, 345.777 315.673, 345.367 314 C 344.304 309.656, 341.105 307.402, 339.558 309.907 M 358.364 310.495 C 358.028 311.370, 358.034 312.367, 358.376 312.710 C 358.719 313.053, 359 312.583, 359 311.667 C 359 310.299, 360.062 310, 364.927 310 C 368.778 310, 371 310.438, 371.273 311.250 C 371.515 311.971, 371.648 311.866, 371.586 311 C 371.426 308.734, 359.218 308.268, 358.364 310.495 M 382.419 310.349 C 382.135 311.091, 382.061 314.804, 382.255 318.599 L 382.608 325.500 382.804 317.750 L 383 310 387.378 310 C 392.356 310, 394.517 311.806, 393.653 315.245 C 393.340 316.495, 393.464 318.133, 393.930 318.887 C 394.457 319.739, 394.717 318.489, 394.619 315.580 C 394.522 312.680, 393.899 310.548, 392.981 309.967 C 390.675 308.509, 383.019 308.786, 382.419 310.349 M 414.579 313 C 414.944 314.375, 415.624 316.175, 416.091 317 C 416.845 318.333, 416.939 318.333, 416.934 317 C 416.931 316.175, 416.251 314.375, 415.423 313 L 413.917 310.500 414.579 313 M 337.111 315.111 C 336.495 316.878, 336.166 318.499, 336.380 318.713 C 336.594 318.927, 337.273 317.656, 337.889 315.889 C 338.505 314.122, 338.834 312.501, 338.620 312.287 C 338.406 312.073, 337.727 313.344, 337.111 315.111 M 386 314 C 386 315.646, 386.518 316.065, 388.250 315.820 C 389.488 315.644, 390.500 314.825, 390.500 314 C 390.500 313.175, 389.488 312.356, 388.250 312.180 C 386.518 311.935, 386 312.354, 386 314 M 305.073 315.635 C 303.933 317.084, 303 318.904, 303 319.680 C 303 321.941, 307.701 326.008, 310.205 325.914 C 312.150 325.841, 312.043 325.692, 309.501 324.934 C 306.362 323.998, 304 321.563, 304 319.263 C 304 318.519, 305.105 316.805, 306.455 315.455 C 307.805 314.105, 308.512 313, 308.027 313 C 307.542 313, 306.212 314.186, 305.073 315.635 M 313.139 314.914 C 314.438 315.967, 315.677 316.652, 315.893 316.438 C 316.624 315.712, 313.764 313, 312.267 313 C 311.253 313, 311.531 313.610, 313.139 314.914 M 363.320 319 C 363.320 322.575, 363.502 324.038, 363.723 322.250 C 363.945 320.462, 363.945 317.538, 363.723 315.750 C 363.502 313.962, 363.320 315.425, 363.320 319 M 366.320 319 C 366.320 322.575, 366.502 324.038, 366.723 322.250 C 366.945 320.462, 366.945 317.538, 366.723 315.750 C 366.502 313.962, 366.320 315.425, 366.320 319 M 407.111 316.111 C 406.495 317.878, 406.166 319.499, 406.380 319.713 C 406.594 319.927, 407.273 318.656, 407.889 316.889 C 408.505 315.122, 408.834 313.501, 408.620 313.287 C 408.406 313.073, 407.727 314.344, 407.111 316.111 M 410.015 318.250 C 410.006 319.338, 410.756 320, 412 320 C 413.100 320, 414 319.523, 414 318.941 C 414 318.359, 413.500 318.191, 412.888 318.569 C 412.277 318.947, 411.384 318.636, 410.904 317.878 C 410.213 316.788, 410.027 316.866, 410.015 318.250 M 131 318.967 C 131 319.404, 132.575 320.964, 134.500 322.432 C 136.425 323.900, 138 324.937, 138 324.735 C 138 324.533, 136.425 322.974, 134.500 321.269 C 132.575 319.565, 131 318.529, 131 318.967 M 386 320 C 386 321.548, 386.621 321.969, 388.750 321.864 C 391.108 321.747, 391.179 321.666, 389.250 321.294 C 388.012 321.056, 387 320.390, 387 319.814 C 387 319.238, 387.900 319.002, 389 319.290 C 390.100 319.577, 391 319.405, 391 318.906 C 391 318.408, 389.875 318, 388.500 318 C 386.667 318, 386 318.533, 386 320 M 337.548 323.750 C 337.014 325.153, 337.131 325.252, 338.141 324.250 C 338.833 323.563, 340.345 323, 341.500 323 C 342.655 323, 344.167 323.563, 344.859 324.250 C 345.869 325.252, 345.986 325.153, 345.452 323.750 C 345.004 322.574, 343.709 322, 341.500 322 C 339.291 322, 337.996 322.574, 337.548 323.750 M 407.659 323.447 C 407.331 324.301, 407.499 325, 408.031 325 C 408.564 325, 409 324.550, 409 324 C 409 322.681, 414.686 322.704, 415.342 324.025 C 415.621 324.589, 415.736 324.476, 415.598 323.775 C 415.212 321.827, 408.388 321.546, 407.659 323.447 M 178.250 328.749 C 194.612 328.904, 221.387 328.904, 237.750 328.749 C 254.112 328.595, 240.725 328.469, 208 328.469 C 175.275 328.469, 161.887 328.595, 178.250 328.749" stroke="none" fill="#5c5c5c" fill-rule="evenodd"/><path d="M 198.205 135.585 C 194.686 137.339, 189.876 141.494, 183.258 148.497 C 177.891 154.177, 163.470 169.196, 151.211 181.873 C 135.434 198.188, 128.276 206.320, 126.711 209.711 C 124.531 214.433, 124.500 215.146, 124.500 260.500 L 124.500 306.500 127.302 312.030 C 130.456 318.255, 136.222 323.675, 142.367 326.194 C 146.089 327.720, 152.521 327.894, 207.104 327.944 L 267.708 328 270.354 325.548 C 273.741 322.409, 273.831 318.078, 270.587 314.306 L 268.174 311.500 208.191 311 C 149.993 310.515, 148.142 310.441, 145.966 308.500 C 141.140 304.195, 140.993 302.739, 141.100 260.282 C 141.155 238.402, 141.492 219.524, 141.850 218.332 C 142.638 215.705, 145.318 212.679, 163.402 194 C 202.856 153.249, 206.206 150, 208.769 150 C 210.462 150, 212.793 151.561, 215.893 154.770 C 285.309 226.642, 279.957 221.454, 284.714 221.479 C 289.915 221.505, 291.972 219.626, 292.702 214.184 L 293.251 210.093 268.875 184.805 C 255.469 170.897, 239.775 154.615, 234 148.622 C 226.761 141.111, 221.947 136.996, 218.500 135.373 C 211.680 132.163, 204.932 132.233, 198.205 135.585 M 292.058 223.500 C 290.165 226.250, 288.317 228.629, 287.950 228.786 C 287.584 228.943, 286.500 229.645, 285.542 230.345 C 283.914 231.536, 283.970 231.867, 286.401 235.449 C 288.788 238.966, 289 240.129, 289 249.679 C 289 262.731, 287.778 265.372, 277.446 274.665 C 267.921 283.232, 265.810 287.125, 265.206 297.250 L 264.743 305 333.994 305 C 397.996 305, 403.142 304.876, 401.887 303.364 C 401.140 302.464, 398.783 300.626, 396.649 299.278 C 394.514 297.931, 392.543 295.967, 392.267 294.914 C 391.617 292.426, 388.791 292.468, 386.500 295 C 385.001 296.656, 383.420 297, 377.305 297 C 363.197 297, 355.207 289.476, 358.927 279.692 C 360.651 275.158, 365.791 273, 374.868 273 L 383 273 383 259.500 C 383 244.052, 382.388 243.149, 377.242 251.018 C 375.451 253.758, 373.313 256, 372.492 256 C 370.342 256, 370.656 259.261, 373 261.268 C 374.100 262.210, 375 263.343, 375 263.787 C 375 264.231, 372.015 265.105, 368.367 265.730 C 360.462 267.084, 355.578 270.505, 352.250 277.020 C 349.357 282.683, 349.423 286.449, 352.512 291.852 C 353.880 294.246, 355 296.383, 355 296.602 C 355 296.821, 351.625 297, 347.500 297 L 340 297 340 279.917 C 340 261.064, 339.702 260.390, 334.660 267.863 C 333.097 270.178, 330.752 272.772, 329.447 273.627 L 327.074 275.181 329.283 278.169 C 331.020 280.518, 331.569 282.850, 331.852 289.079 L 332.212 297 325.106 297 L 318 297 318 273 C 318 258.474, 317.624 249, 317.048 249 C 316.524 249, 314.717 251.005, 313.031 253.456 C 311.345 255.906, 309.018 258.575, 307.860 259.386 L 305.754 260.861 307.877 265.246 C 309.724 269.061, 310 271.411, 310 283.316 L 310 297 303.012 297 L 296.023 297 295.762 257.750 L 295.500 218.500 292.058 223.500 M 327.913 231.087 C 325.709 233.291, 325.935 237.701, 328.329 239.225 C 332.908 242.137, 338.969 237.679, 337.103 232.771 C 335.510 228.580, 331.208 227.792, 327.913 231.087 M 270.950 239.632 C 269.703 242.912, 270.522 245.674, 273.161 247.086 C 278.123 249.742, 283.194 244.714, 280.816 239.496 C 279.889 237.461, 278.965 237, 275.815 237 C 272.561 237, 271.792 237.416, 270.950 239.632 M 328 247 C 325.397 249.603, 325.464 252.423, 328.189 254.961 C 331.139 257.710, 333.441 257.526, 335.945 254.343 C 340.557 248.480, 333.262 241.738, 328 247 M 271.913 255.087 C 267.521 259.479, 273.491 267.646, 278.600 264.235 C 280.855 262.730, 282.020 259.184, 281.077 256.702 C 279.509 252.577, 275.185 251.815, 271.913 255.087 M 281.856 280.296 C 274.461 287.202, 273 289.452, 273 293.934 L 273 297 281 297 L 289 297 289 285.500 C 289 279.175, 288.887 274.021, 288.750 274.046 C 288.613 274.072, 285.510 276.884, 281.856 280.296 M 339.362 311.676 C 339.015 312.679, 337.891 315.470, 336.865 317.877 C 335.839 320.285, 335 322.872, 335 323.627 C 335 325.471, 336.917 325.379, 337.638 323.500 C 338.417 321.471, 343.964 321.569, 345.477 323.638 C 346.136 324.538, 347.172 325.101, 347.781 324.888 C 349.414 324.315, 343.673 310.580, 341.632 310.176 C 340.731 309.998, 339.710 310.673, 339.362 311.676 M 359 311.500 C 359 312.433, 359.944 313, 361.500 313 C 363.889 313, 364 313.267, 364 319 C 364 322.333, 364.444 325, 365 325 C 365.556 325, 366 322.333, 366 319 C 366 313.267, 366.111 313, 368.500 313 C 370.056 313, 371 312.433, 371 311.500 C 371 310.333, 369.667 310, 365 310 C 360.333 310, 359 310.333, 359 311.500 M 383 317.500 L 383 325 387 325 C 391.942 325, 395.592 321.976, 394.074 319.139 C 393.540 318.140, 393.358 316.348, 393.669 315.156 C 394.541 311.822, 392.318 310, 387.378 310 L 383 310 383 317.500 M 407.606 317.086 C 404.921 323.960, 404.839 327.309, 407.442 323.748 C 409.039 321.564, 414.828 321.389, 415.638 323.500 C 415.955 324.325, 416.889 325, 417.714 325 C 418.728 325, 419 324.433, 418.552 323.250 C 412.407 306.997, 411.701 306.600, 407.606 317.086 M 386 314 C 386 315.646, 386.518 316.065, 388.250 315.820 C 389.488 315.644, 390.500 314.825, 390.500 314 C 390.500 313.175, 389.488 312.356, 388.250 312.180 C 386.518 311.935, 386 312.354, 386 314 M 306.455 315.455 C 303.477 318.432, 303.361 320.361, 306 323 C 308.654 325.654, 312.500 325.552, 314.443 322.777 C 316.675 319.591, 316.374 317.439, 313.365 315.073 C 310.016 312.438, 309.439 312.470, 306.455 315.455 M 340.652 315.464 C 339.592 318.226, 339.901 320, 341.441 320 C 343.603 320, 343.968 318.742, 342.564 316.120 C 341.471 314.077, 341.218 313.990, 340.652 315.464 M 410.607 316.582 C 409.584 319.249, 409.913 320, 412.107 320 C 413.617 320, 414.042 319.552, 413.607 318.418 C 413.273 317.548, 413 316.423, 413 315.918 C 413 314.401, 411.259 314.884, 410.607 316.582 M 386 320 C 386 321.467, 386.667 322, 388.500 322 C 390.333 322, 391 321.467, 391 320 C 391 318.533, 390.333 318, 388.500 318 C 386.667 318, 386 318.533, 386 320" stroke="none" fill="#545454" fill-rule="evenodd"/></svg>