<?xml version="1.0" standalone="no"?>
<!DOCTYPE svg PUBLIC "-//W3C//DTD SVG 20010904//EN"
 "http://www.w3.org/TR/2001/REC-SVG-20010904/DTD/svg10.dtd">
<svg version="1.0" xmlns="http://www.w3.org/2000/svg"
 width="600.000000pt" height="499.000000pt" viewBox="0 0 600.000000 499.000000"
 preserveAspectRatio="xMidYMid meet">

<g transform="translate(0.000000,499.000000) scale(0.100000,-0.100000)"
fill="#000000" stroke="none">
<path d="M1982 3634 c-35 -17 -83 -59 -149 -129 -54 -57 -198 -207 -321 -334
-158 -163 -229 -244 -245 -278 -22 -47 -22 -54 -22 -508 l0 -460 28 -55 c32
-63 89 -117 151 -142 37 -15 101 -17 647 -17 l606 -1 27 25 c33 31 34 74 2
112 l-24 28 -600 5 c-582 5 -601 6 -622 25 -49 43 -50 58 -49 482 1 219 4 408
7 420 8 26 35 56 216 243 395 408 428 440 454 440 17 0 40 -16 71 -48 694
-718 641 -667 688 -667 52 0 73 19 80 73 l6 41 -244 253 c-134 139 -291 302
-349 362 -72 75 -121 116 -155 132 -68 32 -136 32 -203 -2z"/>
<path d="M2921 2755 c-19 -27 -38 -51 -41 -53 -4 -1 -15 -8 -25 -15 -16 -12
-15 -16 9 -51 24 -36 26 -47 26 -143 0 -130 -12 -157 -116 -250 -95 -85 -116
-124 -122 -225 l-5 -78 693 0 c640 0 691 1 679 16 -8 9 -31 28 -53 41 -21 14
-41 33 -43 44 -7 25 -35 24 -58 -1 -15 -17 -31 -20 -92 -20 -141 0 -221 75
-184 173 18 45 69 67 160 67 l81 0 0 135 c0 154 -6 164 -58 85 -17 -28 -39
-50 -47 -50 -22 0 -18 -33 5 -53 11 -9 20 -20 20 -25 0 -4 -30 -13 -66 -19
-79 -14 -128 -48 -161 -113 -29 -57 -29 -94 2 -149 14 -23 25 -45 25 -47 0 -2
-34 -4 -75 -4 l-75 0 0 171 c0 188 -3 195 -53 120 -16 -23 -39 -49 -53 -57
l-23 -16 22 -30 c17 -23 23 -47 26 -109 l3 -79 -71 0 -71 0 0 240 c0 145 -4
240 -10 240 -5 0 -23 -20 -40 -45 -17 -24 -40 -51 -51 -59 l-21 -15 21 -43
c18 -39 21 -62 21 -181 l0 -137 -70 0 -70 0 -2 393 -3 392 -34 -50z m-31 -620
l0 -115 -80 0 -80 0 0 31 c0 44 15 67 89 136 36 34 67 62 69 63 1 0 2 -52 2
-115z"/>
<path d="M3279 2679 c-22 -22 -20 -66 4 -81 46 -29 107 15 88 64 -16 42 -59
50 -92 17z"/>
<path d="M2709 2594 c-12 -33 -4 -61 23 -75 49 -26 100 24 76 76 -9 20 -18 25
-50 25 -32 0 -40 -4 -49 -26z"/>
<path d="M3280 2520 c-26 -26 -25 -54 2 -80 29 -27 52 -25 77 7 47 58 -26 126
-79 73z"/>
<path d="M2719 2439 c-44 -44 16 -125 67 -91 23 15 34 50 25 75 -16 41 -59 49
-92 16z"/>
<path d="M3394 1873 c-4 -10 -15 -38 -25 -62 -11 -24 -19 -50 -19 -57 0 -19
19 -18 26 1 8 20 64 19 79 -1 6 -9 17 -15 23 -13 16 6 -41 143 -62 147 -9 2
-19 -5 -22 -15z m40 -75 c-3 -5 -12 -8 -20 -8 -15 0 -18 18 -7 45 5 15 8 14
19 -6 7 -13 10 -27 8 -31z"/>
<path d="M3590 1875 c0 -9 9 -15 25 -15 24 0 25 -3 25 -60 0 -33 4 -60 10 -60
6 0 10 27 10 60 0 57 1 60 25 60 16 0 25 6 25 15 0 12 -13 15 -60 15 -47 0
-60 -3 -60 -15z"/>
<path d="M3830 1815 l0 -75 40 0 c49 0 86 30 71 59 -6 10 -7 28 -4 39 8 34
-14 52 -63 52 l-44 0 0 -75z m75 35 c0 -8 -10 -16 -22 -18 -18 -3 -23 2 -23
18 0 16 5 21 23 18 12 -2 22 -10 22 -18z m5 -60 c0 -15 -7 -20 -25 -20 -18 0
-25 5 -25 20 0 15 7 20 25 20 18 0 25 -5 25 -20z"/>
<path d="M4076 1819 c-27 -69 -28 -102 -2 -66 16 21 74 23 82 2 4 -8 13 -15
21 -15 10 0 13 6 9 18 -62 162 -69 166 -110 61z m54 12 c0 -5 3 -16 6 -25 4
-12 0 -16 -15 -16 -22 0 -25 8 -15 34 7 17 24 22 24 7z"/>
<path d="M3065 1835 c-30 -29 -31 -49 -5 -75 27 -27 65 -26 84 2 23 32 20 54
-10 77 -34 27 -40 26 -69 -4z"/>
</g>
</svg>
