<?xml version="1.0" encoding="UTF-8"?>
<svg version="1.1" xmlns="http://www.w3.org/2000/svg" width="761" height="633">
<path d="M0 0 C251.13 0 502.26 0 761 0 C761 208.89 761 417.78 761 633 C509.87 633 258.74 633 0 633 C0 424.11 0 215.22 0 0 Z " fill="#FEFEFE" transform="translate(0,0)"/>
<path d="M0 0 C0.71285156 -0.03738281 1.42570312 -0.07476562 2.16015625 -0.11328125 C11.10746348 -0.25837272 16.63302899 4.13473651 22.86633301 10.1005249 C26.07976448 13.25354243 29.22779467 16.46862329 32.375 19.6875 C33.6709975 20.99501099 34.96786658 22.30165866 36.265625 23.60742188 C41.67234127 29.06689716 46.99295064 34.54084876 51.97802734 40.39135742 C56.17717048 45.09210666 60.7642068 49.44934191 65.25 53.875 C70.99233742 59.54035747 76.67406497 65.18122987 81.91748047 71.31982422 C86.37005441 76.31339835 91.24899154 80.92088871 96.01147461 85.6159668 C97.4120081 86.99845034 98.8095637 88.38394861 100.20703125 89.76953125 C101.03178955 90.58268799 101.85654785 91.39584473 102.70629883 92.23364258 C105.6952757 95.36544477 106.70812978 96.85580931 107.0625 101.25 C106.95071165 105.05779072 106.23298271 107.37829672 103.75 110.375 C100.95212489 112.62884384 98.97495434 113.33255579 95.4375 114 C89.992609 113.07713712 87.56215889 110.21856053 83.75 106.375 C82.70021425 105.34793982 81.64935501 104.3219762 80.59765625 103.296875 C76.10356766 98.88075956 71.66285579 94.47568998 67.56640625 89.68359375 C62.75707651 84.12802311 57.47715049 79.03207698 52.25 73.875 C41.06267615 62.83764985 41.06267615 62.83764985 37.2578125 58.3828125 C32.54144526 52.86197181 27.28966195 47.84610449 22.125 42.75 C20.08813796 40.73998925 18.05480225 38.72650214 16.0234375 36.7109375 C15.13060059 35.82970215 14.23776367 34.9484668 13.31787109 34.04052734 C11.46582723 32.11805017 9.78237405 30.23041799 8.10791016 28.16650391 C5.26946678 24.806102 3.76987847 23.50720647 -0.625 22.9375 C-5.27039523 23.49815115 -6.10387175 24.99443726 -9.25 28.375 C-10.19322145 29.32200028 -11.14112797 30.26435338 -12.09326172 31.20239258 C-14.84828896 33.93954814 -17.60020602 36.67980747 -20.35107422 39.42114258 C-21.52920821 40.59425013 -22.70823848 41.76645828 -23.88818359 42.93774414 C-29.60682723 48.61566579 -35.26840578 54.26233109 -40.49658203 60.40112305 C-45.2227503 65.72151715 -50.44622372 70.60380896 -55.51171875 75.59765625 C-60.07505185 80.12147998 -64.48444043 84.68511466 -68.66357422 89.56591797 C-71.15977117 92.41245835 -73.85231211 95.04653785 -76.5625 97.6875 C-81.8501564 102.2949754 -81.8501564 102.2949754 -84.50447559 108.44808769 C-84.50652846 109.25000605 -84.50858133 110.0519244 -84.51069641 110.87814331 C-84.52132362 112.26182602 -84.52132362 112.26182602 -84.53216553 113.67346191 C-84.52968811 114.6834021 -84.52721069 115.69334229 -84.5246582 116.73388672 C-84.52976913 117.7991861 -84.53488007 118.86448547 -84.54014587 119.96206665 C-84.55407616 123.492997 -84.55308238 127.02373289 -84.55078125 130.5546875 C-84.55466653 133.00464959 -84.55900085 135.454611 -84.56376648 137.90457153 C-84.57123627 143.04431337 -84.57093207 148.18398653 -84.56567383 153.32373047 C-84.55988091 159.91363704 -84.57680252 166.50326241 -84.6000185 173.09312248 C-84.61474398 178.15456794 -84.61562909 183.21594552 -84.61250877 188.2774086 C-84.61302267 190.70710939 -84.61827313 193.13681392 -84.62832069 195.56649399 C-84.64064328 198.96362364 -84.63391784 202.3602035 -84.62231445 205.75732422 C-84.62995819 206.76321594 -84.63760193 207.76910767 -84.64547729 208.80548096 C-84.64081179 215.62184894 -84.64081179 215.62184894 -81.25 221.375 C-77.40314247 224.14931458 -74.75100234 224.74826768 -70.03921509 224.74008179 C-68.78874893 224.74539413 -67.53828278 224.75070648 -66.24992371 224.75617981 C-64.8718551 224.74703247 -63.4937881 224.73764012 -62.11572266 224.72802734 C-60.65837975 224.72885853 -59.20103707 224.7310759 -57.74369812 224.73457336 C-54.60943584 224.73951778 -51.47536085 224.73543576 -48.34111404 224.72455978 C-43.38198397 224.70818412 -38.42308821 224.71667162 -33.46395874 224.72940063 C-20.25377424 224.75950655 -7.04363206 224.75806677 6.16656935 224.73914778 C14.84741898 224.7268069 23.52800285 224.72869635 32.20882189 224.75753558 C37.13538475 224.77275321 42.06122548 224.76531152 46.98774314 224.74082541 C50.05725068 224.73073521 53.126429 224.7414672 56.19589806 224.75794029 C57.61524336 224.76138404 59.03463968 224.75632839 60.45391655 224.74197197 C68.45446714 224.66607783 73.84835158 224.64216528 79.75 230.375 C81.48125121 233.83750243 81.22815224 237.58908229 80.75 241.375 C78.60545118 244.97477838 76.60893745 246.84542359 72.75 248.375 C69.95875359 248.62947559 69.95875359 248.62947559 66.67965698 248.63569641 C65.43490097 248.64278122 64.19014496 248.64986603 62.90766907 248.65716553 C61.53073084 248.65487171 60.15379295 248.65236201 58.77685547 248.6496582 C57.32452635 248.65400627 55.87219952 248.65918974 54.4198761 248.66514587 C50.47532662 248.67854275 46.53087294 248.67911336 42.58630514 248.67658257 C39.28900862 248.67551247 35.99173143 248.68039768 32.69443905 248.685188 C24.9089082 248.69628739 17.12342557 248.69671937 9.33789062 248.69067383 C1.32179605 248.68464451 -6.69412253 248.69691747 -14.71018708 248.7182439 C-21.60209808 248.7359015 -28.4939533 248.74185437 -35.38588607 248.73860615 C-39.497562 248.73679842 -43.60911263 248.73937757 -47.72076797 248.75332069 C-51.59336453 248.76596081 -55.46568891 248.76389699 -59.33828163 248.75090981 C-60.75313601 248.74855716 -62.16800989 248.75123122 -63.58284187 248.75953293 C-76.70433913 248.83092013 -87.10619501 246.86936817 -97 237.875 C-109.57545849 223.90226835 -108.99944671 210.69775236 -108.9140625 192.6875 C-108.91743584 190.17748785 -108.92229276 187.6674773 -108.92855835 185.1574707 C-108.93684223 179.2433616 -108.91947248 173.32970129 -108.8928045 167.415658 C-108.87403329 162.71930699 -108.88067847 158.02348002 -108.90185547 153.32714844 C-108.93095168 146.81628335 -108.93533164 140.30592158 -108.91907883 133.79501343 C-108.91576118 131.3264453 -108.91977356 128.85785536 -108.93147659 126.38931274 C-109.03889682 97.36711821 -109.03889682 97.36711821 -97.875 86.0625 C-97.36751221 85.53889893 -96.86002441 85.01529785 -96.3371582 84.47583008 C-94.65988267 82.75614939 -92.95772318 81.06442112 -91.25 79.375 C-89.95914959 78.08381885 -88.66879991 76.79213695 -87.37890625 75.5 C-85.45678189 73.57574783 -83.53204144 71.65522959 -81.59033203 69.75073242 C-78.61476983 66.82003404 -75.76261362 63.85310797 -73.05078125 60.67578125 C-67.61360053 54.37437257 -61.56651469 48.63627593 -55.64746094 42.79296875 C-50.24740172 37.45581641 -44.91914218 32.12402307 -39.98486328 26.34570312 C-36.39687865 22.26996264 -32.52418233 18.46469622 -28.6875 14.625 C-27.86314453 13.78839844 -27.03878906 12.95179688 -26.18945312 12.08984375 C-17.64294282 3.52283822 -12.29859637 0.2394417 0 0 Z " fill="#565656" transform="translate(265.25,168.625)"/>
<path d="M0 0 C0.66 0 1.32 0 2 0 C2 32.67 2 65.34 2 99 C7.61 99 13.22 99 19 99 C18.97180715 94.01755482 18.92848179 89.03982183 18.84741211 84.05859375 C18.82433413 82.3672843 18.80986049 80.67583322 18.80444336 78.984375 C18.93338383 66.10382072 18.93338383 66.10382072 13 55 C13 54.01 13 53.02 13 52 C14.39626914 51.11456103 15.79587049 50.23398229 17.2109375 49.37890625 C20.20877453 47.06834627 22.205896 43.98895987 24.38671875 40.92578125 C26 39 26 39 29 38 C29 58.13 29 78.26 29 99 C34.94 99 40.88 99 47 99 C47.12633027 84.98542834 47.12633027 84.98542834 41 73 C41 71.68 41 70.36 41 69 C41.86625 68.690625 42.7325 68.38125 43.625 68.0625 C47.64554971 65.6054974 49.17860334 63.06562306 51.5078125 59.05859375 C53 57 53 57 57 55 C57 69.52 57 84.04 57 99 C63.27 98.67 69.54 98.34 76 98 C74.35 95.69 72.7 93.38 71 91 C69.25732583 84.02930332 68.87353142 77.34156011 72.54296875 70.94921875 C77.24187534 64.66301395 83.23102535 59.65357993 91 58 C94.32906895 57.52237174 97.64325872 57.19947848 101 57 C100.175 56.0925 99.35 55.185 98.5 54.25 C95.96705003 51.46375503 96 51.12741739 96 47 C97.65047 45.97348817 99.32025331 44.97786953 101 44 C103.18587364 41.30818819 103.18587364 41.30818819 105.125 38.3125 C107.1328125 35.30078125 107.1328125 35.30078125 109 33 C109.99 33 110.98 33 112 33 C112 44.55 112 56.1 112 68 C102.5 68.1875 102.5 68.1875 99.55664062 68.20776367 C93.21816485 68.43275635 88.9199157 69.95112886 84 74 C81.51643234 76.9492366 81.05031973 78.60463067 80.5625 82.4375 C81.10008949 86.81501442 82.10675398 88.67276708 85 92 C91.17358516 96.6084509 96.1675102 98.19445052 103.875 98.25 C104.58269531 98.270625 105.29039062 98.29125 106.01953125 98.3125 C110.56955333 98.34639216 113.36924392 97.75991053 117 95 C117.66 94.34 118.32 93.68 119 93 C120.32 93 121.64 93 123 93 C124.04644066 94.63790712 125.0398183 96.31008021 126 98 C128.63806259 100.35286663 131.30870192 102.19221063 134.3125 104.0625 C135.199375 104.701875 136.08625 105.34125 137 106 C137 106.99 137 107.98 137 109 C79.25 109 21.5 109 -38 109 C-38 85.44208062 -38 85.44208062 -28.5390625 75.47265625 C-26.03430861 73.03341131 -23.45168946 70.72984734 -20.8125 68.4375 C-15.7193422 63.97900361 -12.02358984 59.04717968 -9 53 C-8.70015275 48.42246986 -8.72182772 43.83618377 -8.6875 39.25 C-8.64399414 37.33574219 -8.64399414 37.33574219 -8.59960938 35.3828125 C-8.4874867 26.38196399 -8.4874867 26.38196399 -13 19 C-13.75 16.125 -13.75 16.125 -14 14 C-12.96875 13.525625 -11.9375 13.05125 -10.875 12.5625 C-6.05242853 9.85715503 -3.79162353 5.61835705 -1 1 C-0.67 0.67 -0.34 0.34 0 0 Z " fill="#565656" transform="translate(374,278)"/>
<path d="M0 0 C0.33 0 0.66 0 1 0 C1 9.57 1 19.14 1 29 C-5.6 29 -12.2 29 -19 29 C-19 20.4195147 -18.40603309 18.04087 -13 12 C-9.96939052 9.19046842 -6.76207906 6.6149608 -3.51171875 4.06640625 C-0.95462949 2.24808141 -0.95462949 2.24808141 0 0 Z " fill="#FBFBFB" transform="translate(365,348)"/>
<path d="M0 0 C11.46728196 -0.36991232 11.46728196 -0.36991232 13.87890625 1.3046875 C15.69149157 4.04567017 15.10891878 6.78689599 15 10 C15.29185063 12.0064731 15.61169599 14.00994193 16 16 C12.61416198 19.13107836 10.28890538 19.33550778 5.75 19.1875 C2.90375 19.0946875 2.90375 19.0946875 0 19 C0 12.73 0 6.46 0 0 Z " fill="#606060" transform="translate(485,393)"/>
<path d="M0 0 C1.65 0 3.3 0 5 0 C6.17094005 2.7899439 7.33690927 5.58178597 8.5 8.375 C9.00080078 9.56609375 9.00080078 9.56609375 9.51171875 10.78125 C9.82753906 11.54179687 10.14335938 12.30234375 10.46875 13.0859375 C10.76201172 13.7876709 11.05527344 14.4894043 11.35742188 15.21240234 C12 17 12 17 12 19 C10.35 19 8.7 19 7 19 C7 18.01 7 17.02 7 16 C4.03 16 1.06 16 -2 16 C-2 16.99 -2 17.98 -2 19 C-3.65 19 -5.3 19 -7 19 C-5.17778624 12.38757278 -2.94776396 6.19479329 0 0 Z " fill="#5F5F5F" transform="translate(520,393)"/>
<path d="M0 0 C1.2065625 0.0309375 1.2065625 0.0309375 2.4375 0.0625 C3.60688366 3.04060741 4.77254963 6.02015591 5.9375 9 C6.27136719 9.85013672 6.60523438 10.70027344 6.94921875 11.57617188 C7.26503906 12.38505859 7.58085937 13.19394531 7.90625 14.02734375 C8.34614258 15.15064087 8.34614258 15.15064087 8.79492188 16.29663086 C9.4375 18.0625 9.4375 18.0625 9.4375 19.0625 C7.7875 19.0625 6.1375 19.0625 4.4375 19.0625 C4.1075 18.4025 3.7775 17.7425 3.4375 17.0625 C1.54216658 16.59726937 1.54216658 16.59726937 -0.625 16.4375 C-1.924375 16.31375 -3.22375 16.19 -4.5625 16.0625 C-4.8925 17.0525 -5.2225 18.0425 -5.5625 19.0625 C-6.8825 19.0625 -8.2025 19.0625 -9.5625 19.0625 C-8.87721486 14.91963983 -7.58359557 11.22136187 -6.0625 7.3125 C-5.6190625 6.16265625 -5.175625 5.0128125 -4.71875 3.828125 C-3.15041591 0.07683941 -3.15041591 0.07683941 0 0 Z " fill="#5F5F5F" transform="translate(433.5625,392.9375)"/>
<path d="M0 0 C2.73080856 2.38945749 3.76900145 3.97333979 4.5625 7.5 C3.72100859 11.23996182 2.01163873 12.70853575 -1 15 C-4 15.625 -4 15.625 -7 15 C-9.9375 12.9375 -9.9375 12.9375 -12 10 C-12 6.48044581 -11.63108355 4.15079941 -9.9375 1.0625 C-6.72688264 -0.69816113 -3.50004798 -0.75353146 0 0 Z " fill="#5C5C5C" transform="translate(425,311)"/>
<path d="M0 0 C2.9375 2.0625 2.9375 2.0625 5 5 C5.06584389 8.81894541 4.85572029 10.97971812 2.375 13.9375 C-1.01168643 15.45259656 -3.33417263 15.52368962 -7 15 C-9.5 12.9375 -9.5 12.9375 -11 10 C-11 6.1862249 -10.84985071 3.97575452 -8.3125 1.0625 C-5.2135552 -0.3613395 -3.37817188 -0.55153827 0 0 Z " fill="#5C5C5C" transform="translate(424,290)"/>
<path d="M0 0 C3.0099077 2.29014716 4.69783903 3.79135614 5.625 7.5 C4.69783903 11.20864386 3.0099077 12.70985284 0 15 C-3 15.625 -3 15.625 -6 15 C-8.9375 12.9375 -8.9375 12.9375 -11 10 C-11.06641554 6.14789873 -10.87229157 4.00151995 -8.3125 1.0625 C-5.2135552 -0.3613395 -3.37817188 -0.55153827 0 0 Z " fill="#5C5C5C" transform="translate(353,321)"/>
<path d="M0 0 C2.73080856 2.38945749 3.76900145 3.97333979 4.5625 7.5 C3.72100859 11.23996182 2.01163873 12.70853575 -1 15 C-4 15.625 -4 15.625 -7 15 C-9.9375 12.9375 -9.9375 12.9375 -12 10 C-12 6.48044581 -11.63108355 4.15079941 -9.9375 1.0625 C-6.72688264 -0.69816113 -3.50004798 -0.75353146 0 0 Z " fill="#5C5C5C" transform="translate(354,300)"/>
<path d="M0 0 C3.36344489 2.48602449 4.80057749 3.91425523 5.5625 8.0625 C5 11 5 11 3.5 13.375 C-0.24099229 15.80664499 -2.57426418 15.49174842 -7 15 C-9 14 -9 14 -10 12 C-10.75912409 5.16788321 -10.75912409 5.16788321 -8.375 1.5 C-5.23686002 -0.48198314 -3.65126535 -0.67064058 0 0 Z " fill="#5A5A5A" transform="translate(396,397)"/>
<path d="M0 0 C5.28 0 10.56 0 16 0 C16 1.32 16 2.64 16 4 C14.02 4 12.04 4 10 4 C10 8.95 10 13.9 10 19 C8.68 19 7.36 19 6 19 C6 14.05 6 9.1 6 4 C4.02 4 2.04 4 0 4 C0 2.68 0 1.36 0 0 Z " fill="#545454" transform="translate(455,393)"/>
<path d="M0 0 C1.98 0 3.96 0 6 0 C6.5625 1.9375 6.5625 1.9375 7 4 C6 5 6 5 2.9375 5.0625 C1.4834375 5.0315625 1.4834375 5.0315625 0 5 C0 3.35 0 1.7 0 0 Z " fill="#D3D3D3" transform="translate(489,396)"/>
<path d="M0 0 C1.65 0 3.3 0 5 0 C5.33 1.32 5.66 2.64 6 4 C4.02 4 2.04 4 0 4 C0 2.68 0 1.36 0 0 Z " fill="#FDFDFD" transform="translate(490,404)"/>
<path d="M0 0 C3 3.75 3 3.75 3 6 C1.35 6 -0.3 6 -2 6 C-1.34 4.02 -0.68 2.04 0 0 Z " fill="#EBEBEB" transform="translate(522,399)"/>
<path d="M0 0 C2 2 2 2 2 6 C0.68 6 -0.64 6 -2 6 C-1.125 1.125 -1.125 1.125 0 0 Z " fill="#E8E8E8" transform="translate(433,399)"/>
</svg>
