<svg id="svg" version="1.1" xmlns="http://www.w3.org/2000/svg" xmlns:xlink="http://www.w3.org/1999/xlink" width="400" height="332.66666666666663" viewBox="0, 0, 400,332.66666666666663"><g id="svgg"><path id="path0" d="M138.519 88.092 C 139.022 88.168,139.846 88.168,140.349 88.092 C 140.853 88.016,140.441 87.953,139.434 87.953 C 138.428 87.953,138.016 88.016,138.519 88.092 M136.023 88.456 C 135.337 88.513,134.775 88.700,134.775 88.872 C 134.775 89.044,134.214 89.187,133.527 89.190 C 132.569 89.194,132.395 89.274,132.779 89.537 C 133.173 89.808,133.104 89.860,132.446 89.782 C 131.880 89.715,131.645 89.831,131.711 90.142 C 131.778 90.455,131.593 90.544,131.129 90.423 C 130.754 90.325,130.516 90.354,130.598 90.487 C 130.774 90.772,129.780 91.633,129.095 91.789 C 128.833 91.848,128.569 92.036,128.507 92.207 C 128.446 92.377,128.259 92.432,128.091 92.329 C 127.924 92.225,127.787 92.383,127.787 92.679 C 127.787 92.975,127.637 93.125,127.454 93.012 C 127.271 92.899,127.121 93.048,127.121 93.344 C 127.121 93.641,126.972 93.790,126.789 93.677 C 126.606 93.564,126.456 93.641,126.456 93.848 C 126.456 94.355,125.589 95.195,125.331 94.937 C 125.217 94.824,125.125 94.989,125.125 95.305 C 125.125 95.621,124.975 95.787,124.792 95.674 C 124.609 95.561,124.459 95.626,124.459 95.818 C 124.459 96.401,123.051 97.829,122.694 97.608 C 122.510 97.494,122.459 97.561,122.579 97.757 C 122.700 97.952,122.274 98.607,121.632 99.212 C 120.991 99.818,120.466 100.505,120.466 100.739 C 120.466 100.973,120.245 101.165,119.974 101.165 C 119.704 101.165,119.221 101.577,118.901 102.080 C 118.192 103.193,117.770 103.513,117.352 103.254 C 117.178 103.147,117.143 103.233,117.274 103.445 C 117.408 103.661,117.284 103.920,116.993 104.031 C 116.707 104.141,116.473 104.440,116.473 104.695 C 116.473 105.120,116.052 105.308,115.366 105.189 C 115.215 105.163,115.177 105.279,115.281 105.448 C 115.385 105.616,115.247 105.840,114.973 105.945 C 114.700 106.050,114.474 106.402,114.471 106.728 C 114.466 107.233,114.418 107.247,114.143 106.822 C 113.887 106.426,113.818 106.495,113.810 107.155 C 113.802 107.815,113.733 107.884,113.478 107.488 C 113.222 107.091,113.153 107.160,113.145 107.820 C 113.137 108.480,113.068 108.549,112.812 108.153 C 112.556 107.757,112.487 107.826,112.479 108.486 C 112.471 109.146,112.402 109.215,112.146 108.819 C 111.873 108.396,111.823 108.413,111.819 108.926 C 111.812 109.742,110.934 110.637,110.702 110.064 C 110.610 109.836,110.523 109.988,110.509 110.399 C 110.493 110.844,110.272 111.148,109.964 111.148 C 109.678 111.148,109.537 111.298,109.651 111.481 C 109.764 111.664,109.614 111.814,109.318 111.814 C 109.022 111.814,108.872 111.963,108.985 112.146 C 109.099 112.331,108.849 112.481,108.422 112.484 C 107.804 112.488,107.751 112.552,108.153 112.812 C 108.549 113.068,108.480 113.137,107.820 113.145 C 107.160 113.153,107.091 113.222,107.488 113.478 C 107.911 113.751,107.895 113.801,107.385 113.805 C 107.054 113.808,106.875 113.960,106.988 114.143 C 107.101 114.326,106.848 114.488,106.426 114.502 C 106.003 114.517,105.844 114.604,106.073 114.696 C 106.302 114.789,106.489 114.997,106.489 115.159 C 106.489 115.321,106.258 115.365,105.976 115.257 C 105.659 115.135,105.501 115.224,105.560 115.489 C 105.614 115.726,105.321 116.094,104.910 116.309 C 104.500 116.523,104.263 116.797,104.384 116.918 C 104.504 117.039,104.329 117.138,103.993 117.138 C 103.658 117.138,103.476 117.231,103.589 117.344 C 103.847 117.602,103.007 118.469,102.500 118.469 C 102.293 118.469,102.196 118.587,102.285 118.730 C 102.374 118.873,102.008 119.340,101.473 119.766 C 100.937 120.192,100.499 120.736,100.499 120.974 C 100.499 121.494,97.909 123.994,97.488 123.881 C 97.045 123.761,95.621 125.299,95.768 125.740 C 95.844 125.968,95.688 126.044,95.382 125.926 C 95.000 125.780,94.903 125.907,95.002 126.425 C 95.076 126.808,94.995 127.121,94.823 127.121 C 94.650 127.121,94.509 126.966,94.509 126.776 C 94.509 126.576,94.316 126.610,94.052 126.857 C 93.800 127.092,93.666 127.471,93.753 127.699 C 93.841 127.927,93.673 128.206,93.381 128.318 C 93.088 128.430,92.932 128.656,93.033 128.820 C 93.134 128.984,92.959 129.118,92.643 129.118 C 92.327 129.118,92.161 129.211,92.275 129.324 C 92.613 129.663,91.616 130.449,90.848 130.449 C 90.345 130.449,90.169 130.621,90.254 131.032 C 90.321 131.362,89.910 132.069,89.305 132.665 C 88.717 133.243,88.280 133.767,88.334 133.830 C 88.388 133.892,87.972 134.317,87.411 134.773 C 86.602 135.429,86.437 135.477,86.619 135.005 C 86.757 134.645,86.717 134.489,86.519 134.611 C 86.338 134.723,86.190 135.044,86.190 135.325 C 86.190 135.606,85.899 136.205,85.543 136.658 C 85.187 137.110,84.976 137.733,85.075 138.041 C 85.223 138.505,85.195 138.518,84.912 138.119 C 84.724 137.853,84.658 137.493,84.766 137.319 C 84.873 137.145,84.798 137.103,84.598 137.227 C 84.398 137.350,84.268 137.860,84.309 138.360 C 84.351 138.859,84.190 139.467,83.953 139.711 C 83.716 139.954,83.621 140.314,83.742 140.511 C 83.874 140.724,83.806 140.771,83.573 140.627 C 83.359 140.495,83.270 140.247,83.375 140.077 C 83.481 139.906,83.397 139.767,83.189 139.767 C 82.961 139.767,82.850 140.222,82.910 140.914 C 82.964 141.545,82.877 142.181,82.715 142.328 C 82.552 142.478,82.528 142.412,82.662 142.180 C 82.793 141.951,82.752 141.764,82.569 141.764 C 82.387 141.764,82.261 142.067,82.288 142.437 C 82.317 142.823,82.515 143.044,82.750 142.954 C 83.000 142.858,83.089 142.984,82.976 143.276 C 82.875 143.540,82.688 143.692,82.562 143.614 C 81.766 143.122,81.707 145.604,81.864 172.879 C 81.955 188.802,82.134 201.531,82.262 201.165 C 82.390 200.799,82.411 201.155,82.309 201.956 C 82.160 203.122,82.214 203.361,82.576 203.155 C 82.941 202.947,82.948 202.984,82.612 203.346 C 82.119 203.877,82.063 204.659,82.519 204.659 C 82.696 204.659,82.745 204.410,82.629 204.105 C 82.478 203.713,82.539 203.627,82.839 203.813 C 83.106 203.978,83.190 204.433,83.067 205.049 C 82.923 205.769,82.979 205.959,83.283 205.776 C 83.536 205.624,83.512 205.753,83.222 206.111 C 82.814 206.614,82.814 206.679,83.222 206.591 C 83.503 206.530,83.700 206.759,83.709 207.155 C 83.718 207.530,83.918 207.778,84.167 207.723 C 84.472 207.656,84.560 207.882,84.450 208.456 C 84.362 208.916,84.441 209.255,84.628 209.218 C 84.812 209.181,85.202 209.601,85.494 210.150 C 85.785 210.699,86.127 211.195,86.254 211.253 C 86.381 211.310,86.403 211.572,86.302 211.835 C 86.190 212.126,86.324 212.313,86.643 212.313 C 86.965 212.313,87.096 212.499,86.981 212.798 C 86.857 213.122,87.082 213.355,87.657 213.500 C 88.131 213.619,88.519 213.845,88.519 214.002 C 88.519 214.160,88.257 214.195,87.937 214.080 C 87.616 213.965,87.462 213.990,87.593 214.135 C 87.725 214.280,88.174 214.435,88.592 214.478 C 89.819 214.606,89.854 214.623,89.767 215.058 C 89.721 215.287,89.882 215.433,90.125 215.383 C 90.367 215.332,90.481 215.428,90.378 215.595 C 90.140 215.980,90.996 216.714,91.313 216.396 C 91.444 216.266,91.668 216.349,91.812 216.582 C 91.956 216.815,92.386 217.029,92.769 217.057 C 93.152 217.086,93.410 217.198,93.343 217.306 C 92.993 217.873,93.786 218.357,94.467 217.993 C 94.856 217.784,95.175 217.751,95.175 217.920 C 95.175 218.088,95.512 218.335,95.923 218.469 C 96.335 218.603,96.785 218.751,96.922 218.799 C 97.059 218.846,97.883 218.906,98.752 218.932 C 99.906 218.966,100.198 219.066,99.834 219.301 C 99.559 219.479,99.492 219.626,99.684 219.629 C 99.876 219.632,100.235 219.447,100.481 219.218 C 100.840 218.885,100.883 218.885,100.695 219.218 C 100.507 219.550,108.185 219.634,138.602 219.634 C 162.543 219.634,176.672 219.517,176.550 219.319 C 176.358 219.008,177.636 219.123,177.959 219.445 C 178.050 219.536,178.525 219.182,179.014 218.658 C 179.696 217.928,180.036 217.779,180.468 218.020 C 180.895 218.259,181.032 218.206,181.032 217.801 C 181.032 217.481,180.877 217.361,180.647 217.503 C 180.404 217.653,180.354 217.594,180.511 217.340 C 180.700 217.033,180.868 217.031,181.228 217.329 C 181.615 217.650,181.697 217.536,181.697 216.680 C 181.697 216.108,181.847 215.641,182.030 215.641 C 182.213 215.641,182.363 215.257,182.363 214.789 C 182.363 214.306,182.507 214.026,182.696 214.143 C 182.879 214.256,183.028 214.198,183.028 214.013 C 183.028 213.828,182.841 213.557,182.612 213.411 C 181.967 212.998,182.006 211.671,182.658 211.852 C 182.953 211.934,182.858 211.823,182.446 211.607 C 181.635 211.180,181.443 210.160,182.113 209.841 C 182.342 209.732,182.192 209.706,181.780 209.782 C 181.158 209.898,181.031 209.772,181.027 209.037 C 181.024 208.528,180.917 208.317,180.776 208.539 C 180.604 208.810,180.263 208.696,179.637 208.157 C 179.146 207.735,178.804 207.331,178.876 207.259 C 178.947 207.187,178.678 207.103,178.276 207.073 C 177.699 207.029,177.650 207.084,178.041 207.331 C 178.313 207.503,178.386 207.644,178.203 207.644 C 177.526 207.644,176.853 207.001,177.256 206.739 C 177.604 206.513,155.033 206.513,114.391 206.739 C 106.200 206.785,99.659 206.769,99.856 206.703 C 100.258 206.570,98.653 205.657,98.015 205.657 C 97.789 205.657,97.262 205.211,96.844 204.666 C 96.427 204.122,95.955 203.756,95.796 203.854 C 95.637 203.952,95.507 203.649,95.507 203.181 C 95.507 202.713,95.320 202.327,95.092 202.324 C 94.814 202.321,94.842 202.212,95.175 201.997 C 95.507 201.782,95.535 201.672,95.258 201.669 C 94.579 201.661,94.658 145.520,95.339 144.214 C 95.612 143.690,95.837 143.444,95.838 143.667 C 95.839 143.911,96.065 143.986,96.406 143.855 C 96.727 143.732,96.808 143.584,96.593 143.512 C 96.008 143.317,97.513 141.768,98.313 141.740 C 98.971 141.718,98.973 141.706,98.358 141.465 C 97.916 141.292,97.838 141.137,98.109 140.970 C 98.325 140.836,98.503 140.847,98.505 140.995 C 98.506 141.143,98.804 140.815,99.168 140.266 C 99.532 139.717,99.835 139.418,99.842 139.601 C 99.848 139.784,100.003 139.678,100.185 139.365 C 100.382 139.027,100.750 138.871,101.090 138.980 C 101.584 139.139,101.595 139.110,101.165 138.775 C 100.823 138.508,100.786 138.336,101.047 138.228 C 102.006 137.832,103.840 135.956,103.679 135.535 C 103.581 135.280,103.650 135.165,103.833 135.278 C 104.288 135.559,105.081 134.710,104.892 134.144 C 104.799 133.866,104.887 133.776,105.115 133.917 C 105.328 134.048,105.491 133.942,105.491 133.671 C 105.491 133.408,105.753 132.995,106.073 132.752 C 106.569 132.377,106.593 132.381,106.240 132.778 C 104.734 134.467,106.268 133.485,108.319 131.448 C 110.004 129.774,110.815 128.716,110.815 128.192 C 110.815 127.750,110.961 127.505,111.154 127.624 C 111.340 127.739,111.393 128.010,111.272 128.226 C 111.152 128.442,111.823 127.876,112.765 126.968 C 114.633 125.164,114.715 125.054,113.977 125.337 C 113.273 125.607,113.352 124.918,114.060 124.608 C 114.380 124.468,114.749 124.376,114.880 124.402 C 115.011 124.429,115.032 124.228,114.927 123.956 C 114.698 123.359,115.338 123.285,115.610 123.877 C 115.715 124.106,115.717 123.956,115.615 123.544 C 115.420 122.759,115.946 122.494,116.275 123.211 C 116.380 123.440,116.383 123.290,116.281 122.879 C 116.175 122.454,116.249 122.130,116.450 122.130 C 116.645 122.130,116.820 122.317,116.838 122.546 C 116.857 122.775,116.979 122.587,117.111 122.130 C 117.260 121.613,117.573 121.317,117.938 121.349 C 118.399 121.389,118.482 121.228,118.324 120.600 C 118.154 119.921,118.245 119.800,118.925 119.800 C 119.484 119.800,119.712 119.624,119.680 119.218 C 119.648 118.812,119.861 118.648,120.383 118.675 C 120.973 118.707,121.136 118.531,121.155 117.844 C 121.176 117.058,121.206 117.037,121.464 117.637 C 121.709 118.206,121.754 118.218,121.774 117.720 C 121.786 117.400,121.956 117.138,122.149 117.138 C 122.343 117.138,122.409 116.988,122.296 116.805 C 122.183 116.622,122.315 116.473,122.590 116.473 C 122.918 116.473,123.044 116.233,122.956 115.777 C 122.839 115.169,122.891 115.138,123.370 115.528 C 123.849 115.917,123.889 115.895,123.686 115.354 C 123.506 114.874,123.575 114.781,123.993 114.942 C 124.393 115.095,124.479 115.008,124.326 114.609 C 124.173 114.210,124.260 114.123,124.659 114.276 C 125.046 114.425,125.144 114.341,125.006 113.980 C 124.880 113.653,125.012 113.476,125.385 113.472 C 125.813 113.469,125.848 113.398,125.525 113.193 C 125.185 112.978,125.217 112.819,125.672 112.450 C 125.990 112.191,126.145 112.157,126.015 112.373 C 125.886 112.589,125.913 112.849,126.077 112.950 C 126.241 113.051,126.458 112.725,126.559 112.224 C 126.774 111.160,128.184 109.510,128.379 110.094 C 128.450 110.308,128.655 110.483,128.836 110.483 C 129.016 110.483,129.077 110.210,128.971 109.878 C 128.847 109.488,129.075 108.995,129.614 108.489 C 130.073 108.057,130.449 107.880,130.449 108.095 C 130.449 108.310,130.615 108.486,130.818 108.486 C 131.020 108.486,131.101 108.265,130.998 107.995 C 130.894 107.726,131.017 107.389,131.271 107.247 C 131.525 107.105,131.781 106.840,131.840 106.658 C 131.899 106.476,132.133 106.370,132.361 106.423 C 132.990 106.567,133.696 105.753,133.521 105.085 C 133.405 104.641,133.564 104.491,134.154 104.487 C 134.785 104.483,134.842 104.418,134.443 104.160 C 134.045 103.903,134.112 103.831,134.775 103.806 C 135.233 103.789,135.420 103.699,135.191 103.607 C 134.963 103.514,134.787 103.189,134.802 102.884 C 134.818 102.538,134.891 102.486,134.996 102.745 C 135.088 102.974,135.413 103.159,135.718 103.156 C 136.198 103.152,136.205 103.108,135.774 102.829 C 135.375 102.571,135.442 102.497,136.106 102.462 C 136.675 102.432,136.754 102.370,136.356 102.266 C 136.036 102.183,135.774 101.973,135.774 101.800 C 135.774 101.626,136.136 101.576,136.579 101.687 C 137.241 101.853,137.403 101.751,137.494 101.111 C 137.608 100.302,140.433 99.677,140.433 100.461 C 140.433 100.644,139.796 100.851,139.018 100.921 L 137.604 101.048 139.204 101.107 C 140.161 101.141,140.723 101.297,140.601 101.494 C 140.485 101.682,140.618 101.738,140.914 101.624 C 141.199 101.515,141.431 101.259,141.431 101.055 C 141.431 100.851,141.692 101.054,142.011 101.507 C 142.330 101.959,142.554 102.442,142.510 102.579 C 142.466 102.716,142.597 102.829,142.803 102.829 C 143.069 102.829,143.075 102.951,142.821 103.256 C 142.553 103.579,142.619 103.684,143.089 103.684 C 143.431 103.684,143.627 103.529,143.524 103.340 C 143.420 103.150,144.030 103.714,144.879 104.593 C 145.728 105.471,146.423 106.343,146.423 106.530 C 146.423 107.010,147.300 107.830,147.548 107.583 C 147.661 107.469,147.754 107.635,147.754 107.951 C 147.754 108.267,147.903 108.433,148.087 108.319 C 148.270 108.206,148.419 108.260,148.419 108.438 C 148.419 108.617,148.232 108.839,148.003 108.931 C 147.775 109.023,147.962 109.113,148.419 109.130 C 149.103 109.156,149.162 109.225,148.752 109.518 C 148.339 109.813,148.368 109.852,148.918 109.743 C 149.813 109.566,150.992 110.699,150.146 110.923 C 149.786 111.018,149.883 111.087,150.416 111.115 C 151.100 111.151,151.159 111.222,150.749 111.515 C 150.348 111.801,150.397 111.839,150.998 111.707 C 151.509 111.595,151.747 111.698,151.747 112.031 C 151.747 112.299,151.897 112.426,152.080 112.313 C 152.263 112.200,152.413 112.253,152.413 112.432 C 152.413 112.610,152.225 112.842,151.997 112.948 C 151.768 113.053,151.896 113.062,152.282 112.968 C 153.177 112.750,154.110 113.711,153.419 114.138 C 153.092 114.340,153.188 114.446,153.773 114.529 C 154.303 114.604,154.559 114.844,154.528 115.236 C 154.490 115.700,154.578 115.748,154.930 115.456 C 155.288 115.159,155.354 115.221,155.252 115.754 C 155.154 116.260,155.274 116.396,155.738 116.307 C 156.371 116.185,156.891 116.956,156.549 117.509 C 156.443 117.680,156.555 117.779,156.797 117.729 C 157.040 117.678,157.192 117.850,157.136 118.110 C 157.053 118.495,157.127 118.505,157.539 118.163 C 157.965 117.809,158.023 117.851,157.911 118.433 C 157.836 118.819,157.940 119.088,158.146 119.045 C 158.349 119.003,158.678 119.280,158.877 119.661 C 159.077 120.042,159.426 120.291,159.653 120.215 C 160.194 120.035,160.191 120.684,159.651 120.939 C 159.422 121.046,159.648 121.079,160.153 121.012 C 160.897 120.913,160.999 120.976,160.694 121.343 C 160.400 121.698,160.448 121.797,160.913 121.797 C 161.241 121.797,161.416 121.890,161.303 122.003 C 161.007 122.299,161.947 123.157,162.450 123.051 C 162.683 123.002,163.119 123.444,163.420 124.034 C 163.721 124.624,164.087 124.999,164.233 124.866 C 164.379 124.734,164.405 124.888,164.290 125.208 C 164.175 125.528,164.226 125.790,164.403 125.790 C 164.580 125.790,164.725 125.622,164.725 125.417 C 164.725 125.169,164.904 125.192,165.257 125.484 C 165.739 125.885,165.732 125.948,165.174 126.167 C 164.616 126.387,164.613 126.411,165.141 126.433 C 165.462 126.445,165.724 126.588,165.724 126.750 C 165.724 126.912,166.043 127.127,166.433 127.229 C 166.841 127.336,167.070 127.600,166.973 127.852 C 166.881 128.093,167.011 128.482,167.263 128.717 C 167.515 128.952,167.720 128.994,167.720 128.810 C 167.720 128.627,168.067 128.808,168.491 129.213 C 168.914 129.618,169.217 130.042,169.164 130.155 C 169.111 130.268,169.389 130.642,169.782 130.987 C 170.175 131.332,170.388 131.427,170.254 131.198 C 169.674 130.207,170.373 130.901,171.175 132.113 C 171.660 132.845,172.287 133.444,172.570 133.444 C 172.853 133.444,172.993 133.592,172.882 133.772 C 172.770 133.952,173.112 134.364,173.640 134.687 C 174.183 135.019,174.533 135.476,174.445 135.737 C 174.351 136.018,174.437 136.108,174.666 135.967 C 174.886 135.831,175.042 135.957,175.042 136.273 C 175.042 136.569,175.191 136.719,175.374 136.606 C 175.557 136.493,175.707 136.642,175.707 136.938 C 175.707 137.235,175.857 137.384,176.040 137.271 C 176.223 137.158,176.373 137.308,176.373 137.604 C 176.373 137.900,176.522 138.050,176.705 137.937 C 176.889 137.824,177.038 137.973,177.038 138.270 C 177.038 138.566,177.189 138.715,177.373 138.601 C 177.558 138.487,177.804 138.643,177.921 138.947 C 178.038 139.252,179.459 140.808,181.080 142.405 C 182.701 144.003,184.038 145.598,184.053 145.950 C 184.068 146.316,184.152 146.408,184.250 146.165 C 184.362 145.887,184.812 146.168,185.555 146.978 C 186.178 147.659,186.691 148.075,186.694 147.902 C 186.697 147.729,186.844 147.812,187.022 148.087 C 187.308 148.530,187.346 148.530,187.361 148.087 C 187.371 147.784,187.566 147.916,187.854 148.419 C 188.190 149.007,188.333 149.090,188.341 148.700 C 188.350 148.298,188.550 148.201,189.084 148.340 C 189.781 148.522,189.785 148.543,189.167 148.785 C 188.625 148.997,188.671 149.042,189.454 149.061 C 189.990 149.075,190.302 148.945,190.185 148.756 C 190.072 148.572,190.195 148.509,190.465 148.612 C 190.730 148.714,191.034 148.658,191.140 148.487 C 191.245 148.316,191.732 148.252,192.221 148.346 C 192.781 148.453,193.032 148.389,192.900 148.174 C 192.783 147.987,193.209 147.478,193.846 147.045 C 194.483 146.611,195.005 146.135,195.006 145.987 C 195.007 145.839,195.169 145.817,195.366 145.939 C 195.562 146.060,195.525 145.825,195.282 145.416 C 194.934 144.827,194.929 144.640,195.258 144.521 C 195.487 144.438,195.674 144.075,195.674 143.713 C 195.674 143.284,195.818 143.137,196.090 143.290 C 196.423 143.478,196.423 143.436,196.090 143.077 C 195.561 142.507,195.550 140.689,196.073 140.166 C 196.384 139.856,196.318 139.767,195.776 139.767 C 195.393 139.767,194.985 139.521,194.870 139.221 C 194.692 138.756,194.739 138.740,195.186 139.111 C 195.622 139.473,195.694 139.469,195.609 139.088 C 195.428 138.271,194.877 137.867,194.186 138.045 C 193.602 138.195,193.570 138.147,193.946 137.688 C 194.324 137.226,194.281 137.176,193.613 137.301 C 193.191 137.380,193.032 137.356,193.261 137.247 C 193.490 137.138,193.677 136.903,193.677 136.725 C 193.677 136.546,193.550 136.479,193.395 136.575 C 193.080 136.769,191.479 135.087,191.602 134.692 C 191.645 134.555,191.493 134.480,191.265 134.526 C 191.036 134.572,190.899 134.384,190.960 134.110 C 191.021 133.835,190.967 133.714,190.841 133.840 C 190.577 134.104,188.810 132.438,188.935 132.043 C 188.981 131.898,188.876 131.780,188.703 131.780 C 188.178 131.780,183.106 126.486,183.497 126.345 C 183.697 126.273,183.752 126.098,183.619 125.955 C 183.486 125.812,183.111 125.904,182.787 126.159 C 182.248 126.582,182.237 126.571,182.660 126.032 C 183.260 125.268,182.886 124.893,182.121 125.493 C 181.583 125.916,181.571 125.905,181.994 125.366 C 182.249 125.042,182.341 124.667,182.198 124.534 C 182.056 124.402,181.872 124.480,181.790 124.709 C 181.709 124.938,181.486 125.125,181.296 125.125 C 181.084 125.125,181.108 124.935,181.357 124.635 C 181.792 124.111,180.914 122.802,180.443 123.273 C 180.320 123.396,180.435 123.631,180.699 123.794 C 180.963 123.957,181.078 124.191,180.955 124.314 C 180.831 124.438,180.508 124.316,180.237 124.045 C 179.892 123.700,179.849 123.446,180.092 123.202 C 180.522 122.772,177.539 119.657,177.011 119.984 C 176.530 120.281,175.380 119.174,175.593 118.619 C 175.782 118.128,174.243 116.384,173.912 116.715 C 173.801 116.825,173.710 116.658,173.710 116.342 C 173.710 116.026,173.561 115.860,173.378 115.973 C 173.195 116.086,173.045 115.930,173.045 115.625 C 173.045 115.252,172.870 115.138,172.509 115.276 C 172.126 115.423,172.027 115.339,172.164 114.983 C 172.275 114.693,172.186 114.517,171.951 114.563 C 171.729 114.607,171.583 114.460,171.627 114.238 C 171.676 113.988,171.495 113.915,171.153 114.046 C 170.736 114.206,170.652 114.122,170.812 113.706 C 170.943 113.364,170.870 113.183,170.620 113.232 C 170.398 113.276,170.254 113.124,170.300 112.895 C 170.345 112.666,170.196 112.517,169.967 112.562 C 169.738 112.608,169.588 112.458,169.634 112.230 C 169.680 112.001,169.530 111.851,169.301 111.897 C 169.072 111.943,168.923 111.793,168.968 111.564 C 169.014 111.335,168.921 111.186,168.761 111.231 C 168.601 111.277,167.945 110.761,167.302 110.084 C 166.659 109.407,166.040 108.919,165.926 108.999 C 165.812 109.080,165.869 108.967,166.054 108.749 C 166.631 108.067,166.422 107.780,165.641 108.182 C 165.023 108.500,164.965 108.490,165.308 108.127 C 165.889 107.512,165.826 107.198,165.141 107.301 C 164.821 107.349,164.362 107.108,164.120 106.767 C 163.879 106.425,163.505 106.245,163.288 106.366 C 163.023 106.515,163.030 106.441,163.311 106.139 C 163.955 105.445,163.803 105.094,163.036 105.504 C 162.414 105.837,162.380 105.810,162.692 105.228 C 162.987 104.675,162.931 104.587,162.301 104.620 C 161.848 104.644,161.600 104.487,161.657 104.214 C 161.708 103.970,161.447 103.691,161.078 103.594 C 160.709 103.498,160.489 103.286,160.589 103.124 C 160.689 102.961,160.597 102.829,160.383 102.829 C 160.170 102.829,160.081 102.606,160.185 102.333 C 160.290 102.061,160.268 101.854,160.138 101.874 C 159.496 101.969,158.745 101.803,158.818 101.581 C 158.931 101.241,157.081 99.359,156.156 98.873 C 155.745 98.656,155.408 98.235,155.408 97.936 C 155.408 97.638,155.309 97.492,155.188 97.613 C 155.067 97.734,154.793 97.497,154.578 97.086 C 154.364 96.675,154.002 96.381,153.775 96.431 C 153.548 96.481,153.456 96.369,153.572 96.181 C 153.688 95.994,153.512 95.838,153.181 95.835 C 152.671 95.831,152.655 95.781,153.078 95.507 C 153.501 95.234,153.486 95.184,152.975 95.180 C 152.644 95.177,152.466 95.025,152.579 94.842 C 152.692 94.659,152.541 94.509,152.242 94.509 C 151.476 94.509,150.617 93.620,151.168 93.397 C 151.395 93.306,151.206 93.216,150.749 93.199 C 150.086 93.174,150.018 93.102,150.416 92.845 C 150.846 92.567,150.837 92.522,150.352 92.518 C 150.042 92.515,149.592 92.233,149.353 91.892 C 148.923 91.277,148.750 91.181,148.067 91.181 C 147.873 91.181,147.807 91.032,147.920 90.849 C 148.033 90.666,147.813 90.516,147.430 90.516 C 147.048 90.516,146.652 90.301,146.551 90.038 C 146.445 89.762,146.144 89.645,145.841 89.761 C 145.462 89.907,145.392 89.839,145.591 89.517 C 145.790 89.196,145.719 89.128,145.337 89.275 C 145.046 89.386,144.628 89.262,144.410 88.999 C 144.191 88.735,143.843 88.521,143.636 88.524 C 143.430 88.527,143.486 88.674,143.760 88.852 C 144.035 89.029,144.097 89.177,143.899 89.180 C 143.701 89.182,143.434 89.081,143.307 88.953 C 142.872 88.518,138.709 88.234,136.023 88.456 M127.557 110.959 C 127.021 111.570,127.416 111.900,127.993 111.322 C 128.246 111.070,128.453 110.777,128.453 110.673 C 128.453 110.338,127.966 110.493,127.557 110.959 M175.960 118.658 C 175.687 118.933,176.284 119.800,176.746 119.800 C 176.907 119.800,177.038 119.642,177.038 119.448 C 177.038 119.254,176.900 119.181,176.731 119.286 C 176.561 119.390,176.374 119.236,176.315 118.943 C 176.255 118.649,176.095 118.521,175.960 118.658 M196.339 146.090 C 196.339 146.273,196.031 146.423,195.654 146.423 C 195.277 146.423,195.062 146.572,195.175 146.755 C 195.288 146.938,195.152 147.088,194.872 147.088 C 194.558 147.088,194.437 147.278,194.554 147.585 C 194.661 147.863,194.521 148.167,194.235 148.276 C 193.950 148.386,193.780 148.754,193.849 149.111 C 193.931 149.537,193.784 149.752,193.409 149.756 C 192.966 149.760,192.942 149.822,193.297 150.047 C 193.612 150.246,193.637 150.402,193.380 150.560 C 193.177 150.686,192.858 150.693,192.671 150.577 C 192.483 150.461,192.371 150.565,192.421 150.807 C 192.471 151.050,192.341 151.216,192.131 151.176 C 191.893 151.131,191.820 151.382,191.939 151.842 C 192.114 152.523,192.082 152.541,191.508 152.080 C 191.149 151.791,190.993 151.756,191.137 151.997 C 191.278 152.230,191.224 152.413,191.015 152.413 C 190.810 152.413,190.735 152.562,190.849 152.745 C 191.036 153.048,190.405 153.220,189.492 153.116 C 188.698 153.026,189.036 156.097,189.855 156.408 C 190.749 156.748,191.248 157.402,190.619 157.409 C 190.301 157.413,190.288 157.481,190.573 157.662 C 190.787 157.799,191.065 158.320,191.191 158.822 C 191.317 159.323,191.633 159.734,191.894 159.734 C 192.291 159.734,192.362 160.882,192.333 166.743 C 192.300 173.148,192.251 173.714,191.760 173.315 C 191.295 172.937,191.254 172.962,191.458 173.503 C 191.590 173.857,191.509 174.353,191.270 174.648 C 190.941 175.056,190.939 175.115,191.265 174.919 C 191.493 174.782,191.681 174.818,191.681 175.000 C 191.681 175.181,191.361 175.431,190.971 175.555 C 190.414 175.732,190.360 175.842,190.721 176.071 C 191.082 176.300,191.051 176.364,190.577 176.368 C 190.123 176.371,190.025 176.540,190.184 177.040 C 190.332 177.508,190.215 177.775,189.790 177.933 C 188.920 178.257,187.363 179.778,187.565 180.105 C 187.659 180.258,187.592 180.341,187.415 180.291 C 186.974 180.166,185.692 181.677,185.685 182.330 C 185.681 182.749,185.620 182.767,185.399 182.418 C 185.186 182.082,185.071 182.149,184.929 182.692 C 184.826 183.087,184.433 183.491,184.055 183.590 C 183.656 183.694,183.463 183.928,183.595 184.148 C 183.720 184.356,183.540 184.301,183.196 184.027 C 182.631 183.575,182.591 183.582,182.783 184.093 C 182.942 184.517,182.860 184.607,182.454 184.451 C 182.055 184.298,181.968 184.385,182.122 184.784 C 182.267 185.164,182.186 185.269,181.847 185.139 C 181.544 185.023,181.364 185.161,181.364 185.508 C 181.364 185.813,181.215 185.970,181.032 185.857 C 180.849 185.744,180.699 185.866,180.699 186.129 C 180.699 186.392,180.445 186.813,180.136 187.064 C 179.753 187.374,179.653 187.387,179.823 187.105 C 179.960 186.876,179.994 186.689,179.898 186.689 C 179.802 186.689,179.554 187.006,179.346 187.395 C 179.050 187.948,179.058 188.045,179.386 187.842 C 179.656 187.675,179.720 187.720,179.566 187.969 C 179.435 188.180,179.075 188.355,178.766 188.358 C 178.330 188.362,178.303 188.427,178.647 188.644 C 178.981 188.856,178.905 188.975,178.343 189.122 C 177.719 189.285,177.664 189.401,178.011 189.819 C 178.465 190.366,178.232 191.031,177.601 190.989 C 177.315 190.970,177.321 190.916,177.621 190.795 C 177.849 190.702,178.037 190.460,178.037 190.255 C 178.037 189.995,177.918 190.002,177.641 190.279 C 177.211 190.709,176.986 191.481,176.998 192.482 C 177.002 192.832,176.854 193.400,176.669 193.745 C 176.484 194.090,176.341 196.313,176.350 198.684 C 176.361 201.323,176.239 202.995,176.037 202.995 C 175.856 202.995,175.707 203.143,175.707 203.324 C 175.707 204.039,268.692 203.588,268.829 202.872 C 268.916 202.424,268.824 202.326,268.501 202.520 C 268.137 202.740,268.138 202.685,268.510 202.227 C 268.905 201.740,268.891 201.664,268.407 201.664 C 268.099 201.664,267.940 201.514,268.053 201.331 C 268.166 201.148,268.000 200.998,267.685 200.998 C 267.369 200.998,267.201 200.908,267.312 200.796 C 267.667 200.441,266.764 199.762,266.150 199.923 C 265.762 200.024,265.557 199.892,265.557 199.540 C 265.557 199.008,265.447 198.950,264.309 198.885 C 263.579 198.844,262.921 198.043,262.901 197.171 C 262.888 196.619,262.830 196.591,262.562 197.005 C 262.306 197.401,262.238 197.332,262.230 196.672 C 262.222 196.012,262.153 195.943,261.897 196.339 C 261.652 196.719,261.573 196.581,261.569 195.768 C 261.565 194.953,261.444 194.742,261.065 194.888 C 260.790 194.993,260.566 194.918,260.566 194.721 C 260.566 194.524,260.032 194.383,259.377 194.408 C 258.397 194.445,258.215 194.560,258.347 195.063 C 258.446 195.442,258.329 195.674,258.039 195.674 C 257.781 195.674,257.571 195.824,257.571 196.007 C 257.571 196.190,257.335 196.339,257.048 196.339 C 256.191 196.339,255.431 197.258,256.157 197.416 C 256.500 197.490,256.299 197.613,255.665 197.714 C 254.801 197.852,254.663 197.800,254.957 197.445 C 255.235 197.111,255.193 197.005,254.783 197.005 C 254.486 197.005,254.243 197.166,254.243 197.362 C 254.243 197.698,253.059 197.677,246.843 197.229 C 245.976 197.167,244.990 196.866,244.653 196.560 C 244.315 196.255,243.939 196.105,243.817 196.228 C 243.694 196.350,243.594 196.218,243.594 195.935 C 243.594 195.503,242.869 195.092,242.047 195.058 C 241.936 195.054,241.666 194.704,241.445 194.281 C 241.224 193.857,240.869 193.548,240.655 193.594 C 240.441 193.640,240.284 193.565,240.306 193.428 C 240.419 192.712,240.225 192.013,239.914 192.013 C 239.720 192.013,239.668 192.186,239.799 192.398 C 239.946 192.636,239.890 192.691,239.651 192.544 C 239.426 192.405,239.347 191.932,239.460 191.411 C 239.610 190.719,239.574 190.629,239.300 191.015 C 239.023 191.405,238.944 191.241,238.940 190.266 C 238.937 189.562,239.098 189.018,239.309 189.018 C 239.552 189.018,239.523 188.822,239.225 188.455 C 238.915 188.073,238.902 187.972,239.185 188.142 C 239.464 188.310,239.601 188.166,239.601 187.707 C 239.601 187.330,239.769 187.022,239.974 187.022 C 240.230 187.022,240.215 186.861,239.927 186.514 C 239.695 186.235,239.602 185.911,239.720 185.793 C 239.837 185.676,239.933 185.754,239.933 185.968 C 239.933 186.181,240.196 186.344,240.516 186.330 C 240.864 186.314,240.931 186.236,240.682 186.136 C 240.453 186.043,240.266 185.822,240.266 185.643 C 240.266 185.465,240.416 185.411,240.599 185.524 C 240.782 185.637,240.932 185.512,240.932 185.247 C 240.932 184.712,241.820 184.218,242.596 184.321 C 243.037 184.380,243.038 184.349,242.598 184.054 C 241.832 183.540,242.695 182.890,244.092 182.929 C 244.732 182.948,245.196 182.865,245.122 182.745 C 245.000 182.548,250.964 182.580,254.001 182.793 C 254.958 182.860,255.214 182.771,255.078 182.418 C 254.971 182.139,255.067 182.020,255.321 182.117 C 255.654 182.245,255.720 180.317,255.642 172.766 C 255.548 163.581,255.473 162.522,254.974 163.254 C 254.846 163.440,254.226 163.628,253.595 163.670 C 252.208 163.764,251.984 163.941,252.567 164.481 C 252.922 164.811,252.957 164.800,252.743 164.424 C 252.563 164.109,252.603 164.035,252.866 164.198 C 253.080 164.330,253.168 164.581,253.061 164.754 C 252.953 164.927,252.701 164.967,252.499 164.843 C 252.264 164.697,252.209 164.814,252.346 165.170 C 252.508 165.594,252.366 165.724,251.737 165.724 C 251.017 165.724,250.915 165.871,250.915 166.908 C 250.915 167.560,250.776 168.007,250.606 167.902 C 250.436 167.797,250.206 167.999,250.094 168.350 C 249.983 168.702,249.673 169.074,249.405 169.177 C 249.137 169.279,248.916 169.630,248.913 169.956 C 248.911 170.290,248.801 170.403,248.664 170.216 C 248.297 169.717,247.575 169.657,247.671 170.133 C 247.722 170.390,247.467 170.509,247.005 170.445 C 246.406 170.362,246.264 170.495,246.295 171.111 C 246.327 171.747,246.361 171.771,246.495 171.250 C 246.607 170.811,246.732 170.742,246.905 171.021 C 247.231 171.548,246.933 173.091,246.551 172.855 C 246.389 172.755,246.256 172.922,246.256 173.227 C 246.256 173.569,246.437 173.712,246.728 173.600 C 247.386 173.348,248.476 174.414,248.320 175.157 C 248.218 175.648,248.331 175.727,248.888 175.550 C 249.421 175.381,249.583 175.471,249.579 175.934 C 249.575 176.447,249.524 176.463,249.251 176.040 C 248.980 175.620,248.928 175.640,248.924 176.165 C 248.919 176.714,248.716 176.771,247.255 176.630 C 246.339 176.542,245.591 176.598,245.591 176.754 C 245.591 176.911,245.254 177.036,244.842 177.033 C 244.325 177.030,244.226 176.944,244.522 176.756 C 244.795 176.583,244.552 176.484,243.857 176.484 C 243.255 176.484,242.960 176.550,243.202 176.630 C 243.476 176.722,243.298 176.955,242.728 177.250 C 242.034 177.610,241.757 177.629,241.570 177.327 C 241.388 177.032,241.194 177.062,240.811 177.444 C 240.529 177.726,240.403 178.083,240.532 178.236 C 240.660 178.389,240.503 178.313,240.183 178.068 C 239.686 177.687,239.601 177.700,239.601 178.151 C 239.601 178.756,238.417 179.498,237.930 179.197 C 237.751 179.086,237.604 179.238,237.604 179.534 C 237.604 179.830,237.454 179.980,237.271 179.867 C 237.088 179.754,236.938 179.904,236.938 180.200 C 236.938 180.542,236.787 180.647,236.522 180.488 C 236.227 180.311,236.236 180.398,236.552 180.788 C 236.942 181.269,236.911 181.321,236.303 181.204 C 235.847 181.116,235.607 181.242,235.607 181.570 C 235.607 181.844,235.495 182.000,235.358 181.916 C 235.220 181.831,235.075 182.223,235.034 182.786 C 234.993 183.349,234.768 183.931,234.535 184.080 C 234.301 184.228,234.245 184.352,234.411 184.354 C 234.577 184.357,234.502 184.621,234.245 184.942 C 232.847 186.683,232.398 191.173,233.497 192.425 C 234.007 193.007,234.020 193.092,233.572 192.929 C 233.111 192.762,233.087 192.850,233.405 193.536 C 233.610 193.977,233.889 194.339,234.027 194.340 C 234.164 194.342,234.276 194.501,234.276 194.695 C 234.276 194.889,234.089 194.935,233.860 194.798 C 233.574 194.626,233.586 194.722,233.898 195.107 C 234.147 195.415,234.474 195.591,234.624 195.498 C 234.773 195.406,235.004 195.506,235.137 195.720 C 235.287 195.963,235.233 196.020,234.993 195.872 C 234.782 195.741,234.611 195.756,234.614 195.904 C 234.623 196.370,235.086 196.879,235.712 197.110 C 237.110 197.627,235.730 197.831,231.480 197.736 L 226.955 197.635 226.955 186.066 L 226.955 174.497 225.987 174.497 C 225.215 174.497,225.045 174.625,225.142 175.132 C 225.244 175.659,225.181 175.697,224.771 175.357 C 224.359 175.015,224.316 175.047,224.509 175.551 C 224.692 176.028,224.620 176.109,224.167 175.935 C 223.825 175.804,223.675 175.848,223.796 176.044 C 223.908 176.225,223.825 176.373,223.611 176.373 C 223.397 176.373,223.312 176.604,223.421 176.889 C 223.530 177.173,223.509 177.339,223.374 177.257 C 223.239 177.175,222.935 177.317,222.699 177.572 C 222.423 177.871,222.400 178.037,222.635 178.037 C 222.837 178.037,222.907 178.189,222.792 178.375 C 222.677 178.561,222.444 178.627,222.273 178.522 C 222.004 178.355,221.810 179.048,221.922 179.778 C 221.943 179.912,221.586 180.115,221.129 180.230 C 220.673 180.344,220.300 180.647,220.300 180.901 C 220.300 181.156,220.112 181.327,219.884 181.281 C 219.638 181.232,219.507 181.471,219.565 181.864 C 219.644 182.410,219.601 182.440,219.325 182.030 C 219.070 181.654,218.848 181.618,218.421 181.884 C 217.582 182.407,217.522 183.777,218.300 184.613 C 218.668 185.007,218.968 185.486,218.968 185.677 C 218.968 185.867,219.118 186.023,219.301 186.023 C 219.484 186.023,219.634 186.182,219.634 186.376 C 219.634 186.570,219.484 186.636,219.301 186.522 C 219.118 186.409,218.968 186.475,218.968 186.669 C 218.968 186.863,219.118 187.022,219.301 187.022 C 219.484 187.022,219.634 187.234,219.634 187.493 C 219.634 187.752,219.797 188.019,219.997 188.086 C 220.197 188.152,220.384 188.614,220.413 189.111 C 220.442 189.609,220.578 190.016,220.715 190.016 C 220.853 190.017,220.965 191.739,220.965 193.844 L 220.965 197.671 216.809 197.671 L 212.652 197.671 212.566 181.983 C 212.472 165.069,212.481 165.148,210.777 165.892 C 210.432 166.042,210.075 166.181,209.983 166.199 C 209.552 166.287,208.985 166.795,208.985 167.094 C 208.985 167.277,209.172 167.315,209.401 167.177 C 209.687 167.005,209.675 167.102,209.363 167.487 C 209.114 167.794,208.777 167.964,208.615 167.864 C 208.452 167.763,208.319 167.965,208.319 168.311 C 208.319 168.657,208.207 169.053,208.070 169.190 C 207.933 169.328,207.820 169.577,207.820 169.745 C 207.820 169.913,207.694 170.035,207.540 170.017 C 206.964 169.951,205.377 171.797,205.547 172.334 C 205.657 172.679,205.617 172.742,205.439 172.504 C 205.089 172.038,203.524 172.555,203.823 173.038 C 203.937 173.223,203.819 173.290,203.556 173.189 C 202.977 172.967,202.995 173.892,203.591 174.951 C 203.960 175.606,203.940 175.671,203.419 175.512 C 203.094 175.413,203.247 175.575,203.759 175.871 C 204.801 176.475,205.413 177.732,205.096 178.616 C 204.980 178.938,205.007 179.091,205.155 178.957 C 206.039 178.156,206.323 180.608,206.323 189.056 L 206.323 197.671 202.329 197.671 L 198.336 197.671 198.336 172.166 C 198.336 148.267,198.299 146.635,197.754 146.220 C 197.059 145.693,196.339 145.626,196.339 146.090 M219.309 152.118 C 218.636 152.387,218.575 152.504,218.976 152.757 C 219.389 153.019,219.375 153.069,218.885 153.073 C 218.565 153.076,218.303 153.228,218.303 153.411 C 218.303 153.594,218.092 153.744,217.835 153.744 C 217.519 153.744,217.428 153.978,217.554 154.461 C 217.658 154.856,217.606 155.096,217.440 154.995 C 217.274 154.895,216.918 155.049,216.650 155.340 C 216.217 155.807,216.226 155.842,216.733 155.648 C 217.473 155.364,217.467 155.710,216.722 156.276 C 216.348 156.560,216.292 156.721,216.567 156.728 C 216.892 156.736,216.909 156.900,216.639 157.404 C 216.303 158.032,216.426 158.218,217.096 158.096 C 217.255 158.067,217.285 158.306,217.161 158.628 C 217.038 158.951,217.043 159.108,217.174 158.977 C 217.304 158.846,217.622 159.041,217.880 159.409 C 218.138 159.777,218.488 159.991,218.658 159.886 C 218.829 159.781,218.968 159.862,218.968 160.067 C 218.968 160.271,219.088 160.365,219.234 160.275 C 219.380 160.184,219.717 160.264,219.983 160.453 C 220.379 160.734,220.363 160.762,219.894 160.612 C 219.580 160.511,219.234 160.572,219.126 160.747 C 219.018 160.922,219.312 161.065,219.781 161.065 C 220.249 161.065,220.632 160.885,220.632 160.666 C 220.632 160.355,220.721 160.355,221.032 160.666 C 221.251 160.885,221.813 161.047,222.280 161.026 C 223.084 160.988,223.076 160.973,222.130 160.732 L 221.131 160.478 222.027 160.439 C 222.519 160.417,223.018 160.554,223.135 160.744 C 223.256 160.939,223.750 160.584,224.275 159.923 C 224.785 159.281,225.297 158.852,225.413 158.968 C 225.529 159.084,225.624 158.855,225.624 158.458 C 225.624 158.062,225.802 157.737,226.020 157.737 C 226.238 157.737,226.126 157.525,225.771 157.265 C 225.416 157.006,225.233 156.686,225.363 156.556 C 225.494 156.425,225.442 156.023,225.249 155.661 C 224.999 155.195,225.003 154.898,225.260 154.640 C 225.825 154.075,225.693 153.744,224.903 153.744 C 224.506 153.744,224.287 153.639,224.416 153.510 C 224.676 153.249,222.261 152.452,220.965 152.370 C 220.400 152.335,220.560 152.242,221.464 152.080 L 222.795 151.842 221.464 151.815 C 220.732 151.801,219.762 151.937,219.309 152.118 M225.367 155.137 C 225.533 155.634,226.290 155.908,226.290 155.471 C 226.290 155.292,226.052 155.055,225.763 154.944 C 225.438 154.819,225.286 154.894,225.367 155.137 M183.271 156.985 C 183.418 157.366,183.296 157.429,182.744 157.253 C 182.247 157.096,181.965 157.186,181.827 157.546 C 181.717 157.832,181.493 157.983,181.330 157.882 C 181.166 157.781,181.032 157.940,181.032 158.236 C 181.032 158.532,180.882 158.682,180.699 158.569 C 180.516 158.456,180.366 158.606,180.366 158.902 C 180.366 159.228,180.213 159.346,179.977 159.200 C 179.710 159.035,179.659 159.145,179.814 159.550 C 179.981 159.985,179.911 160.091,179.549 159.952 C 179.080 159.772,179.081 160.770,179.552 162.313 C 179.622 162.542,179.512 162.729,179.306 162.729 C 179.101 162.729,179.293 163.043,179.733 163.426 C 180.173 163.809,180.485 164.349,180.427 164.624 C 180.367 164.911,180.474 165.031,180.677 164.906 C 180.872 164.785,181.032 164.888,181.032 165.134 C 181.032 165.381,181.334 165.605,181.704 165.633 C 182.143 165.666,182.295 165.546,182.140 165.288 C 181.941 164.956,182.804 165.500,183.361 166.057 C 183.646 166.342,184.514 166.239,184.770 165.890 C 184.925 165.680,185.017 165.701,185.020 165.948 C 185.024 166.229,185.285 166.208,185.957 165.873 C 186.927 165.389,188.667 163.727,188.204 163.727 C 188.058 163.727,188.131 163.495,188.366 163.212 C 189.013 162.432,188.956 160.722,188.270 160.355 C 187.937 160.177,187.685 159.656,187.682 159.140 C 187.678 158.434,187.606 158.346,187.354 158.735 C 187.072 159.172,187.031 159.168,187.027 158.704 C 187.019 157.900,186.004 157.145,184.464 156.799 C 183.294 156.536,183.110 156.565,183.271 156.985 M185.737 157.404 C 185.916 157.404,185.970 157.554,185.856 157.738 C 185.732 157.939,185.427 157.957,185.088 157.783 C 184.779 157.624,184.301 157.560,184.027 157.641 C 183.583 157.771,183.583 157.748,184.027 157.433 C 184.301 157.238,184.725 157.152,184.969 157.241 C 185.213 157.331,185.559 157.404,185.737 157.404 M191.819 166.389 C 191.819 169.775,191.868 171.161,191.928 169.468 C 191.989 167.775,191.989 165.004,191.928 163.311 C 191.868 161.618,191.819 163.003,191.819 166.389 M219.723 163.090 C 219.590 163.599,219.471 163.669,219.275 163.353 C 219.066 163.015,218.863 163.054,218.331 163.535 C 217.958 163.873,217.747 164.302,217.863 164.489 C 217.978 164.675,217.910 164.728,217.712 164.605 C 217.513 164.482,217.256 164.534,217.141 164.720 C 217.026 164.906,217.124 165.058,217.359 165.058 C 217.593 165.058,217.476 165.275,217.099 165.539 C 216.195 166.172,216.227 168.593,217.148 169.266 C 217.550 169.561,217.609 169.717,217.317 169.717 C 216.991 169.717,217.031 169.897,217.464 170.375 C 217.791 170.737,218.184 170.955,218.338 170.860 C 218.491 170.766,219.073 170.925,219.632 171.214 C 221.277 172.064,223.525 171.764,223.994 170.632 C 224.412 169.625,224.635 169.527,225.208 170.100 C 225.496 170.388,225.577 170.311,225.538 169.790 C 225.509 169.409,225.367 169.171,225.222 169.261 C 224.790 169.528,224.923 169.039,225.418 168.544 C 225.671 168.292,225.970 168.178,226.084 168.291 C 226.197 168.404,226.290 168.322,226.290 168.109 C 226.290 167.895,226.049 167.720,225.755 167.720 C 225.416 167.720,225.290 167.537,225.412 167.221 C 225.517 166.947,225.467 166.722,225.301 166.722 C 225.136 166.722,225.022 166.433,225.048 166.080 C 225.075 165.726,225.215 165.510,225.360 165.600 C 225.505 165.690,225.624 165.446,225.624 165.058 C 225.624 164.671,225.474 164.446,225.291 164.559 C 225.108 164.672,224.958 164.563,224.958 164.317 C 224.958 164.070,224.624 163.844,224.215 163.813 C 223.805 163.782,223.419 163.600,223.355 163.409 C 223.291 163.218,223.027 163.062,222.768 163.062 C 222.508 163.062,222.296 162.882,222.296 162.662 C 222.296 162.352,222.207 162.352,221.897 162.662 C 221.677 162.882,221.191 163.047,220.815 163.028 C 220.231 163.000,220.252 162.957,220.965 162.729 L 221.797 162.462 220.851 162.429 C 220.156 162.405,219.856 162.580,219.723 163.090 M182.363 168.719 C 182.363 168.902,182.213 169.052,182.030 169.052 C 181.847 169.052,181.415 169.314,181.071 169.634 C 180.727 169.954,180.097 170.478,179.672 170.799 C 179.247 171.119,179.075 171.381,179.290 171.381 C 179.504 171.381,179.622 171.568,179.552 171.797 C 179.074 173.361,179.092 174.295,179.598 174.253 C 179.889 174.229,180.193 174.434,180.272 174.709 C 180.401 175.153,180.378 175.153,180.064 174.709 C 179.771 174.295,179.710 174.335,179.706 174.948 C 179.702 175.471,179.847 175.630,180.203 175.493 C 180.540 175.364,180.647 175.454,180.528 175.765 C 180.412 176.068,180.603 176.249,181.077 176.285 C 181.477 176.315,181.892 176.471,182.000 176.631 C 182.617 177.549,185.941 177.090,186.721 175.979 C 187.148 175.372,187.726 174.677,188.008 174.435 C 188.444 174.059,188.446 174.026,188.020 174.210 C 187.742 174.331,187.816 174.157,188.186 173.819 C 188.998 173.077,189.029 172.275,188.279 171.399 C 187.924 170.984,187.840 170.660,188.055 170.528 C 188.536 170.230,187.403 169.052,186.637 169.052 C 186.300 169.052,186.023 168.902,186.023 168.719 C 186.023 168.536,185.200 168.386,184.193 168.386 C 183.186 168.386,182.363 168.536,182.363 168.719 M192.280 190.765 C 192.213 197.920,192.090 197.094,191.933 188.435 C 191.886 185.827,191.959 183.693,192.097 183.693 C 192.234 183.694,192.316 186.876,192.280 190.765 M191.681 191.201 L 191.681 197.671 187.022 197.671 L 182.363 197.671 182.363 196.672 C 182.363 196.123,182.512 195.674,182.696 195.674 C 182.879 195.674,183.028 195.515,183.028 195.321 C 183.028 195.128,182.875 195.064,182.687 195.180 C 182.110 195.537,182.491 194.545,183.171 193.920 C 183.642 193.486,183.714 193.232,183.442 192.959 C 183.169 192.687,183.199 192.461,183.552 192.108 C 183.816 191.843,183.933 191.466,183.812 191.270 C 183.686 191.065,183.746 191.008,183.954 191.136 C 184.395 191.409,186.114 189.767,185.844 189.330 C 185.738 189.158,185.997 189.016,186.420 189.013 C 187.038 189.009,187.090 188.945,186.689 188.686 C 186.257 188.407,186.265 188.362,186.744 188.358 C 187.049 188.355,187.374 188.540,187.467 188.769 C 187.559 188.998,187.649 188.810,187.666 188.353 C 187.691 187.690,187.763 187.622,188.020 188.020 C 188.277 188.418,188.349 188.350,188.374 187.687 C 188.391 187.230,188.479 187.038,188.570 187.261 C 188.699 187.581,188.828 187.581,189.174 187.261 C 189.416 187.038,189.546 186.743,189.463 186.606 C 189.380 186.468,189.541 186.356,189.820 186.356 C 190.144 186.356,190.256 186.168,190.129 185.837 C 189.997 185.491,190.165 185.257,190.635 185.134 C 191.023 185.032,191.244 184.793,191.126 184.603 C 191.002 184.402,191.073 184.356,191.296 184.494 C 191.565 184.660,191.681 186.670,191.681 191.201 M226.562 205.914 C 226.874 206.018,226.800 206.203,226.307 206.547 C 225.925 206.815,225.699 207.173,225.804 207.344 C 225.910 207.514,225.725 207.664,225.394 207.677 C 224.857 207.698,224.863 207.731,225.458 207.987 C 226.035 208.235,226.045 208.276,225.534 208.296 C 225.088 208.314,224.983 208.525,225.099 209.169 C 225.200 209.726,225.081 210.085,224.754 210.210 C 224.479 210.316,224.329 210.595,224.419 210.831 C 224.510 211.066,224.359 211.346,224.084 211.451 C 223.810 211.556,223.682 211.800,223.801 211.992 C 223.920 212.185,223.836 212.560,223.615 212.827 C 223.394 213.093,223.329 213.311,223.471 213.311 C 223.613 213.311,223.412 213.586,223.025 213.922 C 222.465 214.407,222.403 214.623,222.724 214.969 C 222.946 215.209,222.978 215.324,222.795 215.225 C 222.406 215.014,221.831 215.591,221.718 216.307 C 221.657 216.694,222.068 216.826,223.548 216.894 C 224.908 216.956,225.314 216.886,224.958 216.649 C 224.510 216.350,224.714 216.162,225.374 216.267 C 225.512 216.288,225.636 215.969,225.650 215.557 C 225.665 215.146,225.752 214.996,225.844 215.225 C 225.943 215.469,226.618 215.641,227.482 215.641 C 228.290 215.641,228.952 215.790,228.952 215.973 C 228.952 216.156,229.251 216.306,229.617 216.306 C 229.983 216.306,230.283 216.465,230.283 216.659 C 230.283 216.863,230.808 216.968,231.531 216.909 C 232.500 216.828,232.757 216.676,232.682 216.228 C 232.613 215.813,232.752 215.699,233.181 215.823 C 233.601 215.943,233.574 215.886,233.091 215.628 C 232.320 215.217,231.451 212.653,232.076 212.635 C 232.280 212.630,232.146 212.458,231.780 212.254 C 230.798 211.705,230.759 211.637,231.252 211.333 C 231.595 211.121,231.525 210.998,230.960 210.819 C 230.401 210.642,230.255 210.390,230.367 209.801 C 230.461 209.312,230.334 208.948,230.029 208.831 C 229.716 208.711,229.597 208.350,229.698 207.826 C 229.794 207.320,229.724 207.089,229.513 207.219 C 229.306 207.347,229.255 207.214,229.382 206.881 C 229.498 206.578,229.486 206.347,229.356 206.366 C 228.763 206.454,228.261 206.300,228.400 206.073 C 228.484 205.936,228.006 205.811,227.338 205.796 C 226.670 205.780,226.321 205.833,226.562 205.914 M239.081 206.223 C 239.172 206.462,239.041 206.548,238.752 206.437 C 238.409 206.305,238.270 206.495,238.270 207.092 C 238.270 208.671,238.579 208.985,240.135 208.985 L 241.597 208.985 241.602 212.230 C 241.608 216.780,241.697 217.014,243.387 216.928 L 244.759 216.857 244.656 212.921 L 244.553 208.985 246.403 208.985 C 247.483 208.985,248.253 208.838,248.253 208.633 C 248.253 208.439,248.103 208.373,247.920 208.486 C 247.729 208.604,247.570 208.259,247.546 207.674 C 247.523 207.114,247.485 206.499,247.463 206.309 C 247.437 206.092,245.823 205.936,243.174 205.893 C 239.986 205.841,238.965 205.923,239.081 206.223 M254.908 205.974 C 254.908 206.190,255.092 206.256,255.324 206.122 C 255.553 205.991,255.395 206.262,254.973 206.726 C 254.265 207.505,254.248 207.611,254.747 208.111 C 255.241 208.604,255.156 208.796,254.493 208.692 C 254.091 208.628,254.365 209.443,254.908 209.926 C 255.352 210.321,255.352 210.354,254.908 210.220 C 254.487 210.093,254.409 210.604,254.409 213.490 C 254.409 215.371,254.510 216.746,254.634 216.546 C 254.793 216.288,255.001 216.301,255.350 216.591 C 255.913 217.058,261.231 217.062,261.231 216.595 C 261.231 216.436,261.446 216.306,261.708 216.306 C 262.518 216.306,263.548 214.505,263.498 213.174 C 263.458 212.109,262.895 210.994,262.895 211.980 C 262.895 212.185,262.759 212.268,262.594 212.166 C 262.155 211.895,262.577 210.583,263.045 210.763 C 263.307 210.864,263.466 210.414,263.517 209.424 C 263.582 208.166,263.488 207.905,262.912 207.755 C 262.537 207.657,262.230 207.435,262.230 207.263 C 262.230 207.090,262.379 207.042,262.562 207.155 C 262.745 207.268,262.895 207.199,262.895 207.001 C 262.895 206.797,262.525 206.710,262.034 206.799 C 261.381 206.917,261.218 206.838,261.358 206.472 C 261.511 206.075,261.053 205.990,258.752 205.990 C 257.217 205.990,255.724 205.899,255.435 205.788 C 255.140 205.675,254.908 205.757,254.908 205.974 M273.430 206.074 C 273.677 206.474,272.865 207.352,272.472 207.109 C 272.269 206.984,272.228 207.178,272.366 207.612 C 272.530 208.128,272.449 208.319,272.069 208.319 C 271.572 208.319,271.390 209.023,271.530 210.399 C 271.563 210.720,271.427 210.982,271.229 210.982 C 271.017 210.982,270.950 211.305,271.067 211.770 C 271.216 212.362,271.052 212.725,270.408 213.232 C 269.413 214.014,269.302 214.367,270.133 214.105 C 270.644 213.945,270.654 213.977,270.216 214.366 C 269.942 214.609,269.702 214.996,269.684 215.225 C 269.599 216.286,269.463 216.407,269.218 215.641 C 268.962 214.841,268.950 214.849,268.918 215.854 C 268.885 216.893,268.897 216.900,270.532 216.884 C 271.437 216.874,272.168 216.778,272.156 216.670 C 272.057 215.782,272.338 215.641,274.210 215.641 C 275.308 215.641,276.206 215.754,276.206 215.892 C 276.206 216.357,278.182 217.023,278.892 216.798 C 279.379 216.643,279.544 216.380,279.429 215.941 C 279.338 215.592,279.399 215.391,279.565 215.493 C 280.220 215.898,279.274 213.572,278.078 211.837 C 277.709 211.300,277.584 210.971,277.801 211.105 C 278.062 211.267,278.129 211.176,277.998 210.835 C 277.889 210.552,277.666 210.403,277.503 210.504 C 277.339 210.605,277.205 210.542,277.205 210.364 C 277.205 210.185,277.392 209.963,277.621 209.871 C 277.900 209.758,277.869 209.694,277.527 209.677 C 277.242 209.662,276.989 209.307,276.953 208.872 C 276.855 207.690,276.086 206.418,275.572 206.590 C 275.320 206.674,275.210 206.589,275.325 206.402 C 275.448 206.204,275.062 206.007,274.397 205.929 C 273.770 205.856,273.335 205.921,273.430 206.074 M158.012 207.238 C 147.823 207.287,131.050 207.287,120.741 207.238 C 110.432 207.189,118.769 207.149,139.268 207.149 C 159.767 207.149,168.202 207.189,158.012 207.238 M204.520 208.772 C 204.652 209.114,204.560 209.318,204.274 209.318 C 204.024 209.318,203.665 209.655,203.478 210.067 C 203.290 210.478,202.955 210.778,202.733 210.732 C 202.511 210.686,202.329 210.874,202.329 211.148 C 202.329 211.423,202.180 211.647,201.997 211.647 C 201.814 211.647,201.682 212.134,201.703 212.729 L 201.743 213.810 201.997 212.812 L 202.251 211.814 202.328 212.812 C 202.371 213.361,202.382 214.110,202.353 214.476 C 202.309 215.029,202.357 215.057,202.642 214.642 C 202.923 214.234,202.986 214.283,202.990 214.911 C 202.993 215.338,203.143 215.588,203.328 215.474 C 203.511 215.361,203.661 215.502,203.661 215.787 C 203.661 216.073,203.894 216.306,204.179 216.306 C 204.465 216.306,204.606 216.456,204.493 216.639 C 204.367 216.842,204.877 216.972,205.804 216.972 C 206.638 216.972,207.321 217.121,207.321 217.304 C 207.321 217.730,208.005 217.594,208.588 217.052 C 208.836 216.821,209.176 216.718,209.345 216.822 C 209.513 216.926,209.651 216.703,209.651 216.326 C 209.651 215.713,209.992 215.484,210.732 215.601 C 210.869 215.623,210.982 215.407,210.982 215.122 C 210.982 214.836,210.832 214.696,210.649 214.809 C 210.466 214.922,210.316 214.856,210.316 214.662 C 210.316 214.468,210.466 214.309,210.649 214.309 C 211.254 214.309,211.039 211.265,210.399 210.779 C 209.845 210.358,209.845 210.337,210.399 210.327 C 210.720 210.321,210.982 210.150,210.982 209.948 C 210.982 209.745,210.765 209.663,210.499 209.764 C 210.163 209.893,210.079 209.790,210.220 209.422 C 210.358 209.061,210.274 208.948,209.953 209.064 C 209.695 209.158,209.525 209.414,209.576 209.634 C 209.626 209.853,209.501 209.930,209.297 209.804 C 209.031 209.639,209.028 209.474,209.289 209.214 C 209.858 208.645,209.716 208.319,208.902 208.325 C 208.296 208.329,208.249 208.391,208.652 208.652 C 209.054 208.912,209.001 208.976,208.383 208.980 C 207.955 208.983,207.706 208.838,207.820 208.652 C 207.942 208.455,207.556 208.319,206.869 208.319 C 206.233 208.319,205.650 208.507,205.573 208.735 C 205.464 209.059,205.307 209.048,204.872 208.688 C 204.382 208.284,204.338 208.295,204.520 208.772 M259.637 209.328 C 259.453 210.579,257.782 210.478,257.632 209.206 C 257.534 208.384,257.611 208.323,258.643 208.401 C 259.632 208.476,259.746 208.582,259.637 209.328 M263.125 209.900 C 263.041 210.220,262.972 209.958,262.972 209.318 C 262.972 208.677,263.041 208.415,263.125 208.735 C 263.208 209.056,263.208 209.580,263.125 209.900 M84.193 210.003 C 84.193 210.197,84.343 210.263,84.526 210.150 C 84.709 210.037,84.859 210.178,84.859 210.463 C 84.859 210.748,85.014 210.982,85.203 210.982 C 85.437 210.982,85.433 210.767,85.191 210.316 C 84.813 209.609,84.193 209.414,84.193 210.003 M274.686 210.686 C 274.560 210.890,274.641 211.170,274.865 211.308 C 275.161 211.491,275.061 211.759,274.497 212.284 C 273.994 212.752,273.674 212.869,273.589 212.614 C 273.517 212.398,273.688 212.092,273.969 211.935 C 274.276 211.763,274.411 211.383,274.306 210.982 C 274.205 210.595,274.296 210.316,274.523 210.316 C 274.738 210.316,274.812 210.483,274.686 210.686 M228.281 212.063 C 228.284 212.200,227.987 212.313,227.621 212.313 C 226.950 212.313,226.845 211.679,227.445 211.249 C 227.754 211.028,228.270 211.531,228.281 212.063 M259.922 212.785 C 259.613 213.158,259.657 213.336,260.131 213.632 C 260.617 213.934,260.508 213.963,259.567 213.783 C 258.927 213.661,258.279 213.392,258.128 213.186 C 257.947 212.941,257.899 212.984,257.987 213.311 C 258.061 213.586,258.447 213.858,258.845 213.917 C 259.893 214.071,259.732 214.642,258.640 214.642 C 257.850 214.642,257.701 214.496,257.637 213.651 C 257.565 212.716,257.617 212.672,258.564 212.861 C 259.204 212.989,259.567 212.926,259.567 212.687 C 259.567 212.481,259.735 212.313,259.941 212.313 C 260.208 212.313,260.203 212.447,259.922 212.785 M276.966 215.973 C 276.864 216.065,276.714 215.953,276.632 215.724 C 276.540 215.467,275.763 215.287,274.598 215.254 L 272.712 215.199 274.542 215.004 C 276.246 214.822,277.628 215.375,276.966 215.973 M229.738 215.474 C 229.843 215.749,229.784 215.973,229.607 215.973 C 229.430 215.973,229.285 215.832,229.285 215.659 C 229.285 215.486,228.573 215.288,227.704 215.220 L 226.123 215.095 227.835 215.035 C 229.089 214.991,229.597 215.108,229.738 215.474 M223.061 216.084 C 223.154 216.328,223.021 216.528,222.764 216.528 C 222.507 216.528,222.296 216.328,222.296 216.084 C 222.296 215.840,222.430 215.641,222.593 215.641 C 222.757 215.641,222.967 215.840,223.061 216.084 " stroke="none" fill="#545454" fill-rule="evenodd"></path><path id="path1" d="M137.323 88.270 C 137.407 88.407,138.358 88.519,139.434 88.519 C 140.511 88.519,141.461 88.407,141.546 88.270 C 141.631 88.132,140.681 88.020,139.434 88.020 C 138.188 88.020,137.238 88.132,137.323 88.270 M130.585 90.133 C 130.681 90.288,130.395 90.610,129.950 90.849 C 129.505 91.087,129.219 91.407,129.313 91.561 C 129.408 91.714,129.806 91.542,130.197 91.178 C 130.588 90.814,131.113 90.516,131.364 90.516 C 131.614 90.516,131.727 90.366,131.614 90.183 C 131.501 90.000,131.184 89.850,130.909 89.850 C 130.635 89.850,130.489 89.977,130.585 90.133 M147.942 90.814 C 147.840 90.978,147.967 91.192,148.222 91.290 C 148.710 91.477,149.085 91.261,149.085 90.793 C 149.085 90.421,148.174 90.438,147.942 90.814 M151.165 93.428 C 150.855 93.531,150.870 93.679,151.227 94.037 C 151.699 94.509,152.413 94.679,152.413 94.319 C 152.413 93.912,151.553 93.298,151.165 93.428 M153.040 95.538 C 152.677 95.768,152.707 95.831,153.181 95.835 C 153.512 95.838,153.688 95.994,153.572 96.181 C 153.456 96.369,153.548 96.481,153.775 96.431 C 154.002 96.381,154.386 96.714,154.627 97.171 C 154.868 97.629,155.077 97.854,155.091 97.671 C 155.105 97.488,155.252 97.675,155.418 98.087 C 155.722 98.843,156.406 99.125,156.406 98.494 C 156.406 97.777,153.514 95.238,153.040 95.538 M122.629 97.504 C 122.742 97.687,122.601 97.837,122.316 97.837 C 122.006 97.837,121.797 98.127,121.797 98.558 C 121.797 98.955,121.834 99.217,121.880 99.140 C 121.926 99.064,122.326 98.590,122.770 98.087 C 123.458 97.307,123.492 97.171,123.000 97.171 C 122.683 97.171,122.516 97.321,122.629 97.504 M120.199 99.684 C 119.961 99.954,119.857 100.321,119.967 100.500 C 120.081 100.683,119.944 100.738,119.651 100.626 C 119.325 100.501,119.135 100.613,119.135 100.932 C 119.135 101.271,119.351 101.379,119.800 101.261 C 120.166 101.165,120.466 100.929,120.466 100.736 C 120.466 100.543,120.714 100.111,121.017 99.777 C 121.452 99.296,121.469 99.171,121.100 99.181 C 120.843 99.188,120.437 99.414,120.199 99.684 M157.072 99.319 C 157.072 99.626,158.812 101.200,158.972 101.039 C 159.064 100.947,158.755 100.489,158.287 100.020 C 157.481 99.215,157.072 98.978,157.072 99.319 M137.552 100.680 C 137.444 100.962,137.449 101.287,137.563 101.401 C 137.677 101.515,137.770 101.434,137.770 101.220 C 137.770 100.989,138.309 100.832,139.101 100.832 C 139.834 100.832,140.433 100.682,140.433 100.499 C 140.433 99.933,137.775 100.100,137.552 100.680 M141.431 101.163 C 141.431 101.387,141.207 101.483,140.932 101.377 C 140.034 101.032,140.408 101.437,141.485 101.974 C 142.782 102.621,142.881 102.547,142.068 101.544 C 141.718 101.112,141.431 100.941,141.431 101.163 M135.774 101.830 C 135.774 102.013,136.111 102.161,136.522 102.158 C 137.128 102.154,137.176 102.091,136.772 101.830 C 136.127 101.413,135.774 101.413,135.774 101.830 M117.804 102.349 C 117.804 102.660,117.648 102.772,117.414 102.627 C 117.154 102.466,117.094 102.567,117.234 102.932 C 117.362 103.264,117.222 103.606,116.875 103.808 C 116.562 103.990,116.457 104.144,116.642 104.150 C 117.078 104.163,118.802 102.566,118.802 102.150 C 118.802 101.974,118.577 101.830,118.303 101.830 C 118.028 101.830,117.804 102.064,117.804 102.349 M159.928 102.282 C 160.043 102.583,160.280 102.829,160.455 102.829 C 160.629 102.829,160.689 102.961,160.589 103.124 C 160.489 103.286,160.705 103.496,161.069 103.592 C 162.103 103.862,161.863 103.423,160.307 102.199 C 159.791 101.793,159.744 101.804,159.928 102.282 M142.512 103.245 C 142.589 103.473,142.863 103.661,143.123 103.661 C 143.731 103.661,144.426 104.319,144.426 104.896 C 144.426 105.354,147.742 108.819,148.180 108.819 C 148.312 108.819,148.419 108.660,148.419 108.466 C 148.419 108.272,148.270 108.206,148.087 108.319 C 147.903 108.433,147.754 108.267,147.754 107.951 C 147.754 107.635,147.661 107.469,147.548 107.583 C 147.299 107.831,146.423 107.009,146.423 106.527 C 146.423 105.921,143.715 103.324,143.196 103.433 C 142.910 103.494,142.789 103.387,142.915 103.184 C 143.035 102.988,142.963 102.829,142.754 102.829 C 142.545 102.829,142.436 103.016,142.512 103.245 M115.235 105.187 C 115.269 105.638,115.391 105.673,115.875 105.371 C 116.656 104.884,116.636 104.522,115.833 104.582 C 115.456 104.610,115.210 104.859,115.235 105.187 M133.444 105.032 C 133.444 105.475,133.535 105.497,133.943 105.158 C 134.218 104.930,134.443 104.687,134.443 104.618 C 134.443 104.549,134.218 104.493,133.943 104.493 C 133.669 104.493,133.444 104.735,133.444 105.032 M131.617 106.484 C 131.502 106.670,131.521 106.822,131.658 106.822 C 131.795 106.822,131.617 107.042,131.262 107.311 C 130.906 107.579,130.780 107.804,130.980 107.810 C 131.542 107.826,132.542 106.588,132.158 106.350 C 131.976 106.238,131.732 106.298,131.617 106.484 M129.508 108.592 C 128.717 109.433,128.599 109.817,129.129 109.817 C 129.317 109.817,129.568 109.555,129.687 109.235 C 129.805 108.914,130.058 108.548,130.249 108.421 C 130.440 108.293,130.514 108.107,130.413 108.006 C 130.312 107.905,129.905 108.169,129.508 108.592 M149.295 109.718 C 149.058 109.955,150.016 110.900,150.350 110.759 C 150.493 110.698,150.354 110.399,150.042 110.094 C 149.729 109.789,149.393 109.620,149.295 109.718 M127.924 110.085 C 127.462 110.397,126.456 111.889,126.456 112.261 C 126.456 112.426,126.684 112.371,126.963 112.140 C 127.242 111.908,127.395 111.643,127.302 111.550 C 127.209 111.458,127.454 111.104,127.846 110.764 C 128.543 110.160,128.604 109.625,127.924 110.085 M169.220 112.104 C 171.912 114.999,172.379 115.457,172.379 115.201 C 172.379 115.067,171.294 113.913,169.968 112.637 C 168.268 111.000,168.047 110.843,169.220 112.104 M151.960 112.409 C 151.769 112.725,152.619 113.493,152.876 113.236 C 152.987 113.125,153.078 113.283,153.078 113.588 C 153.078 113.894,153.228 114.143,153.411 114.143 C 153.594 114.143,153.744 114.020,153.744 113.870 C 153.744 113.461,152.126 112.135,151.960 112.409 M156.281 117.138 C 157.709 118.602,158.946 119.800,159.031 119.800 C 159.115 119.800,158.857 119.452,158.458 119.027 C 158.058 118.602,157.845 118.128,157.984 117.975 C 158.123 117.822,158.051 117.803,157.825 117.933 C 157.568 118.081,157.164 117.759,156.745 117.071 C 156.377 116.467,156.075 116.104,156.074 116.264 C 156.074 116.423,155.850 116.369,155.578 116.143 C 155.305 115.917,155.179 115.576,155.296 115.385 C 155.414 115.195,155.353 115.136,155.161 115.254 C 154.969 115.373,154.726 115.247,154.621 114.973 C 154.516 114.700,154.262 114.476,154.057 114.476 C 153.852 114.476,154.853 115.674,156.281 117.138 M105.158 115.641 C 105.158 115.937,105.008 116.086,104.825 115.973 C 104.642 115.860,104.493 115.926,104.493 116.120 C 104.493 116.619,105.006 116.557,105.466 116.003 C 105.733 115.682,105.746 115.465,105.507 115.318 C 105.315 115.199,105.158 115.344,105.158 115.641 M102.878 117.694 C 102.262 118.361,102.670 118.676,103.314 118.031 C 103.599 117.746,103.719 117.445,103.580 117.361 C 103.441 117.277,103.125 117.427,102.878 117.694 M100.913 119.674 C 100.317 120.285,99.867 120.966,99.914 121.188 C 99.961 121.410,99.716 121.653,99.369 121.728 C 98.470 121.923,97.024 123.446,97.390 123.813 C 97.732 124.154,100.499 121.628,100.499 120.975 C 100.499 120.748,100.959 120.182,101.521 119.716 C 102.082 119.251,102.419 118.801,102.269 118.716 C 102.119 118.632,101.509 119.063,100.913 119.674 M119.634 118.747 C 119.248 119.133,119.515 119.393,120.133 119.231 C 120.499 119.135,120.799 118.950,120.799 118.819 C 120.799 118.549,119.888 118.492,119.634 118.747 M175.568 118.758 C 175.343 119.122,176.632 120.317,176.929 120.020 C 177.050 119.899,176.966 119.800,176.741 119.800 C 176.517 119.800,176.428 119.647,176.544 119.459 C 176.660 119.272,176.557 119.159,176.314 119.210 C 176.072 119.260,175.911 119.114,175.957 118.885 C 176.052 118.407,175.830 118.334,175.568 118.758 M118.267 120.327 C 118.378 120.616,118.472 120.953,118.474 121.075 C 118.481 121.373,119.123 120.369,119.130 120.050 C 119.132 119.913,118.894 119.800,118.600 119.800 C 118.249 119.800,118.135 119.981,118.267 120.327 M159.290 120.355 C 158.886 120.759,159.060 121.114,159.567 120.919 C 159.842 120.814,160.067 120.594,160.067 120.430 C 160.067 120.081,159.608 120.037,159.290 120.355 M162.146 123.034 C 161.428 123.292,161.694 123.738,162.479 123.592 C 162.891 123.516,163.041 123.543,162.812 123.651 C 162.188 123.948,162.311 124.317,163.035 124.317 C 163.538 124.317,163.608 124.194,163.366 123.741 C 162.981 123.020,162.676 122.844,162.146 123.034 M179.922 123.350 C 179.818 123.455,179.957 123.765,180.231 124.039 C 180.506 124.314,180.816 124.453,180.921 124.348 C 181.025 124.244,180.886 123.934,180.612 123.659 C 180.337 123.384,180.027 123.245,179.922 123.350 M114.204 124.361 C 113.780 124.818,113.531 125.289,113.649 125.407 C 113.768 125.526,114.088 125.324,114.360 124.958 C 114.633 124.592,114.995 124.330,115.165 124.376 C 115.335 124.422,115.474 124.235,115.474 123.960 C 115.474 123.271,115.110 123.386,114.204 124.361 M164.590 125.663 C 164.323 126.359,164.406 126.428,165.174 126.149 C 165.709 125.954,165.724 125.872,165.296 125.517 C 164.897 125.186,164.763 125.214,164.590 125.663 M92.180 128.985 C 91.356 129.787,90.880 130.445,91.122 130.447 C 91.677 130.450,92.550 129.599,92.275 129.324 C 92.161 129.211,92.343 129.118,92.679 129.118 C 93.014 129.118,93.191 129.021,93.072 128.901 C 92.953 128.782,93.115 128.495,93.432 128.263 C 93.749 128.031,93.934 127.771,93.843 127.684 C 93.752 127.597,93.003 128.183,92.180 128.985 M169.052 130.620 C 169.052 130.974,169.980 131.780,170.387 131.780 C 170.598 131.780,170.709 131.593,170.632 131.364 C 170.556 131.136,170.356 130.946,170.189 130.943 C 170.021 130.941,169.696 130.819,169.468 130.674 C 169.239 130.529,169.052 130.504,169.052 130.620 M88.229 132.932 C 86.387 134.879,85.925 135.976,87.477 134.717 C 88.002 134.292,88.388 133.892,88.334 133.830 C 88.280 133.767,88.752 133.216,89.381 132.605 C 90.011 131.993,90.393 131.411,90.230 131.310 C 90.068 131.210,89.167 131.939,88.229 132.932 M171.058 132.374 C 171.046 132.889,173.206 135.108,173.719 135.108 C 173.919 135.108,173.990 135.258,173.877 135.441 C 173.649 135.810,174.138 135.901,174.486 135.553 C 174.607 135.432,174.250 135.055,173.693 134.716 C 173.135 134.377,172.770 133.952,172.882 133.772 C 172.993 133.592,172.842 133.444,172.546 133.444 C 172.223 133.444,172.103 133.290,172.245 133.060 C 172.387 132.830,172.337 132.766,172.118 132.901 C 171.918 133.024,171.600 132.860,171.412 132.536 C 171.211 132.192,171.064 132.125,171.058 132.374 M105.890 132.845 C 105.671 133.065,105.491 133.448,105.491 133.697 C 105.491 133.946,105.341 134.057,105.158 133.943 C 104.975 133.830,104.825 133.896,104.825 134.090 C 104.825 134.786,105.452 134.423,105.940 133.444 C 106.489 132.343,106.482 132.254,105.890 132.845 M191.088 134.620 C 191.586 135.144,192.053 135.505,192.126 135.423 C 192.199 135.341,191.791 134.913,191.221 134.471 L 190.183 133.668 191.088 134.620 M85.341 136.202 C 84.738 136.898,84.575 137.647,84.921 138.133 C 85.188 138.510,85.219 138.492,85.075 138.041 C 84.976 137.733,85.198 137.096,85.567 136.627 C 86.226 135.789,86.026 135.412,85.341 136.202 M193.432 137.335 C 193.754 137.419,193.933 137.626,193.828 137.796 C 193.723 137.965,193.890 138.103,194.197 138.103 C 194.657 138.103,194.683 138.014,194.343 137.604 C 194.115 137.329,193.685 137.122,193.387 137.143 C 192.934 137.176,192.941 137.207,193.432 137.335 M177.263 138.680 C 177.178 138.820,177.317 139.128,177.572 139.364 C 177.954 139.717,178.037 139.705,178.037 139.301 C 178.037 138.735,177.493 138.300,177.263 138.680 M83.431 139.767 C 83.335 140.133,83.416 140.530,83.610 140.650 C 83.808 140.773,83.866 140.711,83.742 140.511 C 83.621 140.314,83.758 139.917,84.047 139.627 C 84.488 139.186,84.495 139.101,84.089 139.101 C 83.823 139.101,83.527 139.401,83.431 139.767 M195.865 140.393 C 195.765 140.554,195.702 141.468,195.723 142.425 C 195.745 143.383,195.611 144.262,195.425 144.379 C 195.030 144.628,194.967 146.423,195.353 146.423 C 195.497 146.423,195.576 146.061,195.527 145.620 C 195.475 145.143,195.588 144.874,195.806 144.958 C 196.052 145.052,196.184 144.273,196.206 142.599 C 196.238 140.092,196.201 139.850,195.865 140.393 M179.700 141.204 C 179.700 141.338,180.374 142.122,181.198 142.946 C 182.022 143.770,182.696 144.321,182.696 144.171 C 182.696 144.021,182.022 143.238,181.198 142.429 C 180.374 141.621,179.700 141.070,179.700 141.204 M95.254 144.351 C 94.750 145.420,94.735 145.757,95.194 145.757 C 95.388 145.757,95.462 145.619,95.358 145.451 C 95.254 145.283,95.381 144.933,95.641 144.673 C 95.900 144.414,96.012 144.038,95.889 143.840 C 95.757 143.625,95.498 143.833,95.254 144.351 M81.684 144.509 C 81.354 145.375,81.695 202.163,82.030 202.163 C 82.213 202.163,82.398 201.789,82.440 201.331 C 82.510 200.581,82.488 200.565,82.212 201.165 C 82.024 201.574,81.930 190.705,81.968 172.962 C 82.002 157.084,81.988 144.093,81.936 144.093 C 81.885 144.093,81.771 144.280,81.684 144.509 M183.239 144.983 C 183.447 145.134,183.699 145.557,183.800 145.923 C 183.944 146.448,183.970 146.419,183.922 145.783 C 183.888 145.340,183.636 144.917,183.361 144.843 C 183.031 144.754,182.990 144.801,183.239 144.983 M192.910 147.634 C 192.661 147.882,192.934 148.419,193.309 148.419 C 193.450 148.419,193.566 148.195,193.566 147.920 C 193.566 147.399,193.273 147.271,192.910 147.634 M188.353 148.586 C 188.353 148.859,188.602 148.957,189.018 148.849 C 189.384 148.753,189.684 148.635,189.684 148.586 C 189.684 148.537,189.384 148.419,189.018 148.323 C 188.602 148.214,188.353 148.313,188.353 148.586 M191.167 148.442 C 191.047 148.637,190.730 148.714,190.465 148.612 C 190.195 148.509,190.072 148.572,190.185 148.756 C 190.504 149.272,191.570 149.141,191.570 148.586 C 191.570 147.995,191.466 147.958,191.167 148.442 M192.067 151.192 C 191.338 151.944,191.156 152.302,191.503 152.302 C 191.784 152.302,192.013 152.115,192.013 151.886 C 192.013 151.657,192.425 151.163,192.928 150.787 C 193.432 150.412,193.686 150.100,193.493 150.094 C 193.300 150.088,192.658 150.582,192.067 151.192 M221.464 152.088 L 220.133 152.263 221.464 152.487 C 222.196 152.610,223.132 152.811,223.544 152.933 C 224.022 153.075,224.293 153.014,224.293 152.765 C 224.293 152.549,224.155 152.458,223.987 152.562 C 223.819 152.666,223.482 152.563,223.238 152.332 C 222.960 152.069,222.301 151.978,221.464 152.088 M218.027 153.111 C 217.786 153.497,217.762 153.744,217.967 153.744 C 218.152 153.744,218.303 153.605,218.303 153.435 C 218.303 153.266,218.565 153.074,218.885 153.010 C 219.389 152.908,219.397 152.864,218.945 152.686 C 218.625 152.560,218.268 152.725,218.027 153.111 M216.972 154.204 C 216.972 154.478,217.121 154.795,217.304 154.908 C 217.488 155.022,217.637 154.890,217.637 154.615 C 217.637 154.340,217.488 154.023,217.304 153.910 C 217.121 153.797,216.972 153.929,216.972 154.204 M225.125 154.742 C 225.012 154.925,225.024 155.245,225.153 155.453 C 225.281 155.661,225.402 156.135,225.422 156.507 C 225.442 156.879,225.645 157.245,225.874 157.321 C 226.503 157.531,226.388 155.849,225.756 155.607 C 225.451 155.490,225.304 155.189,225.413 154.906 C 225.628 154.345,225.437 154.236,225.125 154.742 M216.639 155.377 C 216.977 155.617,217.004 155.732,216.722 155.735 C 216.493 155.738,216.306 155.885,216.306 156.063 C 216.306 156.240,216.537 156.296,216.819 156.188 C 217.423 155.957,217.303 155.339,216.618 155.154 C 216.229 155.048,216.233 155.090,216.639 155.377 M183.028 156.905 C 182.742 157.250,182.729 157.404,182.988 157.404 C 183.193 157.404,183.361 157.265,183.361 157.094 C 183.361 156.923,183.773 156.721,184.276 156.644 L 185.191 156.506 184.317 156.456 C 183.836 156.428,183.256 156.631,183.028 156.905 M189.684 156.758 C 189.684 156.952,189.834 157.018,190.017 156.905 C 190.200 156.792,190.349 156.858,190.349 157.052 C 190.349 157.246,190.518 157.404,190.723 157.404 C 190.981 157.404,190.968 157.250,190.682 156.905 C 190.201 156.326,189.684 156.249,189.684 156.758 M216.381 157.555 C 216.418 158.004,216.514 158.306,216.594 158.226 C 216.674 158.146,216.950 158.340,217.207 158.657 C 217.631 159.182,217.643 159.170,217.335 158.530 C 217.148 158.142,217.102 157.706,217.233 157.561 C 217.364 157.416,217.258 157.421,216.998 157.572 C 216.646 157.776,216.580 157.705,216.738 157.293 C 216.855 156.988,216.807 156.739,216.632 156.739 C 216.457 156.739,216.344 157.106,216.381 157.555 M183.967 157.479 C 183.622 157.721,183.635 157.756,184.027 157.641 C 184.301 157.560,184.772 157.621,185.073 157.775 C 185.417 157.951,185.746 157.904,185.959 157.647 C 186.376 157.143,184.652 156.997,183.967 157.479 M191.898 166.579 C 191.925 170.343,192.027 173.502,192.123 173.598 C 192.218 173.694,192.313 170.614,192.333 166.753 C 192.352 162.892,192.251 159.734,192.108 159.734 C 191.964 159.734,191.870 162.814,191.898 166.579 M218.511 160.000 C 218.375 160.220,218.385 160.410,218.533 160.424 C 218.681 160.438,219.176 160.513,219.634 160.591 C 220.241 160.695,220.335 160.650,219.983 160.422 C 219.717 160.251,219.393 160.176,219.262 160.257 C 219.132 160.338,218.965 160.223,218.891 160.002 C 218.787 159.690,218.702 159.689,218.511 160.000 M179.035 161.564 C 179.035 162.205,179.155 162.729,179.301 162.729 C 179.447 162.729,179.506 162.205,179.431 161.564 C 179.356 160.923,179.236 160.399,179.165 160.399 C 179.093 160.399,179.035 160.923,179.035 161.564 M220.632 160.733 C 220.632 160.842,221.216 160.924,221.930 160.915 C 222.644 160.906,223.157 160.782,223.070 160.640 C 222.889 160.345,220.632 160.431,220.632 160.733 M253.577 163.324 C 253.577 163.468,253.877 163.608,254.243 163.636 C 254.609 163.663,254.908 163.545,254.908 163.374 C 254.908 163.202,254.609 163.062,254.243 163.062 C 253.877 163.062,253.577 163.179,253.577 163.324 M255.579 172.609 C 255.582 177.794,255.719 181.740,255.907 182.030 C 256.119 182.359,256.231 179.387,256.235 173.314 C 256.238 167.524,256.116 164.023,255.907 163.894 C 255.688 163.758,255.576 166.745,255.579 172.609 M182.355 165.709 C 182.555 166.083,182.863 166.389,183.040 166.389 C 183.585 166.389,183.396 165.906,182.676 165.456 C 182.043 165.061,182.018 165.080,182.355 165.709 M225.047 166.093 C 225.021 166.439,225.136 166.722,225.301 166.722 C 225.467 166.722,225.517 166.947,225.412 167.221 C 225.290 167.537,225.416 167.720,225.755 167.720 C 226.068 167.720,226.290 167.444,226.290 167.055 C 226.290 166.689,226.131 166.389,225.937 166.389 C 225.743 166.389,225.668 166.255,225.769 166.091 C 225.870 165.928,225.760 165.719,225.524 165.629 C 225.274 165.533,225.075 165.727,225.047 166.093 M212.226 166.116 C 212.539 166.494,212.661 170.409,212.730 182.226 L 212.822 197.837 212.817 181.891 C 212.813 168.015,212.747 165.924,212.313 165.781 C 211.904 165.646,211.889 165.707,212.226 166.116 M216.432 167.527 C 216.409 168.091,216.458 168.289,216.540 167.966 C 216.622 167.643,216.797 167.446,216.928 167.527 C 217.059 167.608,217.186 167.410,217.211 167.087 C 217.235 166.764,217.079 166.500,216.864 166.501 C 216.649 166.501,216.454 166.963,216.432 167.527 M180.986 168.941 C 180.783 169.185,180.748 169.390,180.908 169.396 C 181.067 169.403,180.824 169.622,180.366 169.884 C 179.908 170.145,179.721 170.364,179.950 170.371 C 180.179 170.377,180.666 170.083,181.032 169.717 C 181.398 169.351,181.847 169.052,182.030 169.052 C 182.213 169.052,182.363 168.927,182.363 168.774 C 182.363 168.335,181.391 168.452,180.986 168.941 M224.162 170.244 C 223.888 170.959,223.904 171.048,224.312 171.048 C 224.506 171.048,224.572 170.899,224.459 170.715 C 224.346 170.532,224.496 170.383,224.792 170.383 C 225.088 170.383,225.238 170.233,225.125 170.050 C 224.821 169.559,224.392 169.645,224.162 170.244 M218.754 171.215 C 219.029 171.489,219.526 171.709,219.860 171.702 C 220.346 171.693,220.302 171.596,219.634 171.215 C 218.542 170.590,218.130 170.590,218.754 171.215 M246.448 171.564 C 246.322 172.065,246.358 172.614,246.527 172.784 C 246.716 172.972,246.897 172.769,246.995 172.258 C 247.223 171.062,246.731 170.437,246.448 171.564 M179.035 172.546 C 179.035 173.186,179.093 173.710,179.165 173.710 C 179.236 173.710,179.356 173.186,179.431 172.546 C 179.506 171.905,179.447 171.381,179.301 171.381 C 179.155 171.381,179.035 171.905,179.035 172.546 M191.068 174.139 C 191.114 174.818,191.267 175.374,191.409 175.374 C 191.710 175.374,191.539 173.458,191.208 173.127 C 191.085 173.004,191.022 173.460,191.068 174.139 M188.020 173.877 C 187.792 174.151,187.705 174.376,187.826 174.376 C 187.947 174.376,187.741 174.704,187.367 175.104 C 186.535 175.997,186.506 176.381,187.271 176.346 C 187.623 176.331,187.688 176.253,187.436 176.152 C 186.810 175.899,187.286 175.375,187.947 175.587 C 188.433 175.742,188.444 175.716,188.020 175.411 C 187.631 175.131,187.621 175.051,187.972 175.047 C 188.233 175.044,188.344 174.834,188.236 174.551 C 188.132 174.281,188.303 173.912,188.616 173.729 C 188.929 173.547,189.016 173.393,188.809 173.388 C 188.603 173.382,188.248 173.602,188.020 173.877 M224.439 175.396 C 223.825 176.037,223.678 176.332,224.044 176.192 C 224.364 176.069,224.626 175.826,224.626 175.652 C 224.626 175.478,224.813 175.443,225.042 175.574 C 225.270 175.706,225.347 175.691,225.211 175.542 C 225.075 175.392,225.131 175.068,225.335 174.823 C 226.033 173.981,225.416 174.376,224.439 175.396 M203.993 176.366 C 204.268 176.539,204.496 176.799,204.501 176.943 C 204.506 177.087,204.700 177.504,204.933 177.870 C 205.328 178.492,205.342 178.481,205.133 177.704 C 204.860 176.683,204.368 176.038,203.869 176.045 C 203.663 176.048,203.719 176.192,203.993 176.366 M189.857 176.955 C 190.069 177.732,189.534 178.020,189.239 177.288 C 189.138 177.039,189.060 177.106,189.045 177.454 C 189.017 178.075,189.840 178.258,190.181 177.706 C 190.294 177.525,190.220 177.113,190.019 176.791 C 189.701 176.284,189.679 176.306,189.857 176.955 M242.435 176.976 C 242.343 177.217,242.117 177.320,241.932 177.206 C 241.748 177.092,241.597 177.158,241.597 177.351 C 241.597 177.806,241.673 177.798,242.779 177.224 C 243.306 176.951,244.110 176.825,244.647 176.933 C 245.166 177.037,245.591 176.978,245.591 176.802 C 245.591 176.305,242.630 176.469,242.435 176.976 M246.839 176.608 C 247.250 176.687,247.924 176.687,248.336 176.608 C 248.748 176.528,248.411 176.463,247.587 176.463 C 246.764 176.463,246.427 176.528,246.839 176.608 M238.340 178.881 C 237.784 179.511,238.288 179.509,239.121 178.879 C 239.608 178.511,239.644 178.391,239.268 178.393 C 238.993 178.394,238.576 178.614,238.340 178.881 M185.474 181.515 C 185.263 181.744,185.205 182.116,185.345 182.341 C 185.518 182.622,185.661 182.511,185.798 181.989 C 186.039 181.065,185.975 180.971,185.474 181.515 M235.008 182.097 C 234.789 182.316,234.609 182.701,234.609 182.952 C 234.609 183.203,234.384 183.633,234.110 183.908 C 233.419 184.598,233.416 185.601,234.106 185.028 C 234.379 184.802,234.520 184.484,234.419 184.322 C 234.319 184.159,234.359 184.027,234.508 184.027 C 234.657 184.027,234.943 183.502,235.143 182.862 C 235.344 182.221,235.485 181.697,235.458 181.697 C 235.430 181.697,235.228 181.877,235.008 182.097 M184.513 182.675 C 184.619 182.847,184.441 183.142,184.117 183.330 C 183.793 183.519,183.685 183.678,183.877 183.684 C 184.285 183.696,185.025 183.015,185.025 182.629 C 185.025 182.483,184.866 182.363,184.673 182.363 C 184.479 182.363,184.407 182.503,184.513 182.675 M245.143 182.779 C 245.228 182.916,247.497 183.008,250.186 182.983 C 255.943 182.930,255.548 182.757,249.366 182.623 C 246.958 182.572,245.058 182.641,245.143 182.779 M243.058 183.022 C 242.672 183.178,242.267 183.537,242.158 183.820 C 241.984 184.273,242.098 184.269,243.110 183.786 C 244.738 183.010,244.693 182.361,243.058 183.022 M191.933 188.435 C 192.090 197.094,192.213 197.920,192.280 190.765 C 192.316 186.876,192.234 183.694,192.097 183.693 C 191.959 183.693,191.886 185.827,191.933 188.435 M217.931 184.590 C 218.137 184.992,218.455 185.413,218.637 185.525 C 219.207 185.878,218.999 185.362,218.262 184.595 L 217.555 183.860 217.931 184.590 M180.200 186.152 C 179.573 186.898,179.587 187.589,180.216 186.971 C 180.524 186.669,180.721 186.272,180.654 186.089 C 180.580 185.886,180.403 185.910,180.200 186.152 M177.899 189.850 C 178.022 190.532,177.948 190.719,177.607 190.588 C 177.355 190.492,177.149 190.615,177.149 190.862 C 177.149 191.194,177.308 191.227,177.756 190.987 C 178.326 190.682,178.436 189.639,177.949 189.152 C 177.830 189.034,177.808 189.348,177.899 189.850 M176.373 192.901 C 176.373 193.572,176.477 194.017,176.604 193.890 C 176.956 193.538,177.013 191.681,176.672 191.681 C 176.508 191.681,176.373 192.230,176.373 192.901 M233.028 192.839 C 233.028 193.300,233.168 193.677,233.339 193.677 C 233.510 193.677,233.565 193.540,233.462 193.373 C 233.358 193.205,233.441 193.013,233.645 192.945 C 233.887 192.864,233.844 192.678,233.522 192.411 C 233.108 192.067,233.028 192.136,233.028 192.839 M233.722 194.921 C 233.722 195.239,233.921 195.699,234.165 195.943 C 234.455 196.233,234.609 196.257,234.609 196.011 C 234.609 195.804,234.796 195.742,235.025 195.874 C 235.267 196.013,235.325 195.986,235.164 195.810 C 235.011 195.644,234.712 195.504,234.498 195.500 C 234.285 195.496,234.154 195.234,234.208 194.918 C 234.261 194.601,234.174 194.343,234.013 194.343 C 233.853 194.343,233.722 194.603,233.722 194.921 M245.092 196.880 C 245.436 197.132,245.876 197.335,246.070 197.333 C 246.264 197.330,246.218 197.198,245.969 197.040 C 245.586 196.798,245.586 196.728,245.969 196.594 C 246.218 196.507,245.982 196.433,245.444 196.429 C 244.533 196.423,244.509 196.454,245.092 196.880 M175.707 200.000 C 175.707 201.871,175.838 202.995,176.057 202.995 C 176.280 202.995,176.384 201.910,176.346 200.000 C 176.312 198.353,176.155 197.005,175.996 197.005 C 175.837 197.005,175.707 198.353,175.707 200.000 M254.929 197.480 C 254.673 197.788,254.830 197.851,255.582 197.740 C 256.743 197.570,256.807 197.477,255.919 197.245 C 255.560 197.151,255.114 197.256,254.929 197.480 M263.245 198.215 C 263.659 198.902,264.291 199.048,264.771 198.568 C 264.899 198.440,264.708 198.336,264.348 198.336 C 263.988 198.336,263.497 198.149,263.255 197.920 C 262.893 197.576,262.891 197.628,263.245 198.215 M265.557 199.501 C 265.557 199.775,265.777 200.000,266.046 200.000 C 266.344 200.000,266.460 199.805,266.343 199.501 C 266.238 199.226,266.018 199.002,265.855 199.002 C 265.691 199.002,265.557 199.226,265.557 199.501 M82.430 203.205 C 82.314 203.321,82.363 203.683,82.538 204.010 C 82.741 204.390,82.741 204.645,82.537 204.715 C 82.341 204.783,82.335 205.014,82.522 205.315 C 82.943 205.993,83.373 204.903,83.011 204.077 C 82.871 203.756,82.780 203.382,82.809 203.245 C 82.874 202.940,82.712 202.923,82.430 203.205 M95.507 203.453 C 95.507 203.750,95.641 203.956,95.805 203.910 C 95.969 203.864,96.487 204.270,96.956 204.811 C 97.426 205.352,97.885 205.720,97.976 205.629 C 98.156 205.450,97.041 204.115,96.090 203.370 C 95.587 202.976,95.507 202.987,95.507 203.453 M83.110 205.907 C 83.041 206.044,83.014 206.344,83.048 206.572 C 83.083 206.801,83.130 207.115,83.153 207.270 C 83.176 207.425,83.491 207.894,83.853 208.312 C 84.216 208.729,84.431 209.201,84.333 209.361 C 84.234 209.520,84.321 209.651,84.526 209.651 C 84.730 209.651,84.791 209.823,84.660 210.035 C 84.515 210.269,84.569 210.329,84.797 210.188 C 85.024 210.048,85.256 210.290,85.384 210.802 C 85.508 211.296,85.823 211.636,86.143 211.621 C 86.488 211.604,86.536 211.533,86.273 211.427 C 86.044 211.335,85.857 211.067,85.857 210.832 C 85.857 210.598,85.557 210.025,85.191 209.560 C 84.825 209.094,84.526 208.475,84.526 208.184 C 84.526 207.892,84.339 207.691,84.110 207.737 C 83.881 207.783,83.737 207.617,83.789 207.369 C 83.841 207.121,83.730 206.733,83.542 206.507 C 83.354 206.280,83.299 205.997,83.419 205.876 C 83.540 205.756,83.547 205.657,83.436 205.657 C 83.325 205.657,83.178 205.770,83.110 205.907 M226.373 206.064 C 225.521 206.474,225.390 206.877,226.108 206.877 C 226.375 206.877,226.519 206.757,226.428 206.610 C 226.143 206.149,227.856 205.915,228.600 206.313 C 228.990 206.521,229.397 207.136,229.506 207.679 C 229.774 209.020,230.176 209.186,230.210 207.969 C 230.226 207.423,230.121 207.049,229.978 207.137 C 229.835 207.226,229.537 206.960,229.316 206.547 C 228.864 205.704,227.564 205.491,226.373 206.064 M241.348 205.903 C 242.400 205.969,244.122 205.969,245.175 205.903 C 246.227 205.837,245.366 205.783,243.261 205.783 C 241.156 205.783,240.295 205.837,241.348 205.903 M254.992 206.110 C 254.580 206.314,254.243 206.696,254.243 206.959 C 254.243 207.307,254.449 207.244,254.998 206.728 C 255.629 206.135,256.244 206.000,258.742 205.906 L 261.730 205.794 258.735 205.767 C 257.088 205.751,255.403 205.906,254.992 206.110 M273.211 205.990 C 272.937 206.167,272.843 206.315,273.002 206.318 C 273.168 206.321,273.168 206.509,273.002 206.754 C 272.843 206.992,272.961 206.917,273.265 206.588 C 273.872 205.931,275.740 205.732,275.348 206.366 C 275.209 206.590,275.294 206.682,275.557 206.595 C 275.800 206.514,276.058 206.270,276.130 206.052 C 276.292 205.566,273.945 205.516,273.211 205.990 M99.948 206.577 C 99.603 206.797,137.931 206.791,165.724 206.567 C 171.672 206.519,159.393 206.447,138.436 206.406 C 117.479 206.366,100.160 206.443,99.948 206.577 M247.526 207.501 C 247.599 208.131,247.793 208.564,247.956 208.464 C 248.397 208.191,248.315 207.122,247.822 206.713 C 247.481 206.429,247.420 206.593,247.526 207.501 M261.231 206.675 C 261.231 206.869,261.382 206.934,261.566 206.821 C 261.751 206.707,261.991 206.848,262.101 207.134 C 262.211 207.420,262.453 207.654,262.639 207.654 C 262.844 207.654,262.824 207.471,262.589 207.187 C 262.292 206.829,262.302 206.680,262.632 206.548 C 262.868 206.453,262.650 206.364,262.146 206.349 C 261.643 206.335,261.231 206.481,261.231 206.675 M177.038 206.988 C 177.038 207.338,177.091 207.359,178.277 207.484 C 178.685 207.527,178.942 207.440,178.849 207.290 C 178.757 207.140,178.461 207.102,178.192 207.205 C 177.924 207.308,177.704 207.227,177.704 207.024 C 177.704 206.821,177.554 206.656,177.371 206.656 C 177.188 206.656,177.038 206.805,177.038 206.988 M120.741 207.238 C 131.050 207.287,147.823 207.287,158.012 207.238 C 168.202 207.189,159.767 207.149,139.268 207.149 C 118.769 207.149,110.432 207.189,120.741 207.238 M179.869 208.322 C 180.548 209.072,180.819 209.020,180.505 208.201 C 180.389 207.900,180.063 207.654,179.780 207.654 C 179.344 207.654,179.358 207.757,179.869 208.322 M254.313 208.411 C 254.370 209.095,254.480 209.203,254.829 208.913 C 255.073 208.710,255.153 208.455,255.007 208.345 C 254.861 208.235,254.629 208.009,254.492 207.843 C 254.354 207.677,254.273 207.933,254.313 208.411 M204.179 208.829 C 203.616 209.255,203.605 209.318,204.096 209.318 C 204.406 209.318,204.659 209.173,204.659 208.995 C 204.659 208.818,204.884 208.759,205.158 208.865 C 205.433 208.970,205.657 208.890,205.657 208.688 C 205.657 208.178,204.952 208.245,204.179 208.829 M257.632 209.206 C 257.731 210.042,259.567 210.711,259.567 209.911 C 259.567 209.768,259.193 209.651,258.735 209.651 C 258.255 209.651,257.903 209.459,257.903 209.198 C 257.903 208.900,258.175 208.796,258.696 208.896 C 259.133 208.979,259.567 208.921,259.662 208.767 C 259.757 208.612,259.316 208.448,258.681 208.401 C 257.608 208.322,257.534 208.379,257.632 209.206 M263.016 209.401 C 263.059 210.087,262.992 210.649,262.867 210.649 C 262.500 210.649,262.264 211.962,262.594 212.166 C 262.759 212.268,262.895 212.074,262.895 211.733 C 262.895 211.393,263.016 210.973,263.164 210.799 C 263.311 210.625,263.321 209.958,263.185 209.318 L 262.937 208.153 263.016 209.401 M276.963 208.985 C 276.991 209.351,277.131 209.651,277.275 209.651 C 277.420 209.651,277.537 209.351,277.537 208.985 C 277.537 208.619,277.397 208.319,277.225 208.319 C 277.054 208.319,276.936 208.619,276.963 208.985 M224.709 209.205 C 224.184 209.417,224.156 210.417,224.680 210.243 C 224.893 210.172,225.104 209.860,225.149 209.549 C 225.195 209.239,225.208 208.997,225.179 209.011 C 225.149 209.026,224.938 209.113,224.709 209.205 M230.505 209.207 C 230.196 209.516,230.226 210.649,230.543 210.649 C 230.686 210.649,230.834 210.275,230.872 209.817 C 230.944 208.949,230.876 208.836,230.505 209.207 M244.591 212.880 C 244.500 215.113,244.543 216.823,244.687 216.679 C 244.831 216.534,244.905 214.707,244.852 212.618 L 244.755 208.819 244.591 212.880 M203.161 209.983 C 203.275 210.166,203.125 210.316,202.829 210.316 C 202.532 210.316,202.387 210.473,202.506 210.665 C 202.653 210.904,202.870 210.891,203.191 210.624 C 203.745 210.164,203.807 209.651,203.308 209.651 C 203.114 209.651,203.048 209.800,203.161 209.983 M254.270 212.745 C 254.206 216.170,254.383 216.977,255.194 216.961 C 255.684 216.952,255.680 216.905,255.158 216.508 C 254.480 215.994,254.270 210.316,254.928 210.316 C 255.122 210.316,255.188 210.166,255.075 209.983 C 254.546 209.128,254.323 209.894,254.270 212.745 M277.621 209.871 C 277.392 209.963,277.205 210.185,277.205 210.364 C 277.205 210.542,277.380 210.580,277.594 210.448 C 277.854 210.287,277.914 210.387,277.775 210.750 C 277.660 211.049,277.679 211.362,277.816 211.447 C 277.953 211.532,278.098 211.162,278.139 210.626 C 278.180 210.089,278.174 209.662,278.125 209.677 C 278.076 209.691,277.849 209.779,277.621 209.871 M181.697 210.649 C 181.697 211.015,181.815 211.314,181.959 211.314 C 182.103 211.314,182.244 211.015,182.271 210.649 C 182.299 210.283,182.181 209.983,182.009 209.983 C 181.838 209.983,181.697 210.283,181.697 210.649 M274.268 210.871 C 274.328 211.176,274.601 211.487,274.875 211.562 C 275.285 211.674,275.293 211.641,274.916 211.377 C 274.664 211.201,274.560 210.890,274.686 210.686 C 274.812 210.483,274.745 210.316,274.538 210.316 C 274.330 210.316,274.209 210.566,274.268 210.871 M227.445 211.249 C 227.014 211.558,226.878 212.313,227.252 212.313 C 227.546 212.313,228.062 211.313,227.868 211.119 C 227.813 211.063,227.622 211.122,227.445 211.249 M182.163 212.505 C 182.163 212.937,182.356 213.365,182.591 213.455 C 182.877 213.565,182.997 213.350,182.952 212.808 C 182.864 211.750,182.163 211.481,182.163 212.505 M270.400 211.952 C 270.297 212.119,270.400 212.332,270.630 212.425 C 270.962 212.558,270.963 212.598,270.632 212.619 C 270.403 212.634,270.216 212.814,270.216 213.019 C 270.216 213.277,270.371 213.265,270.715 212.978 C 271.269 212.519,271.391 211.647,270.902 211.647 C 270.729 211.647,270.504 211.784,270.400 211.952 M201.951 212.910 C 201.854 213.513,201.889 214.077,202.029 214.163 C 202.439 214.416,202.559 213.885,202.335 212.812 L 202.126 211.814 201.951 212.910 M273.544 212.408 C 273.544 212.644,273.845 212.859,274.213 212.887 C 274.795 212.931,274.820 212.875,274.403 212.459 C 273.811 211.866,273.544 211.851,273.544 212.408 M257.636 213.644 C 257.711 214.620,259.567 215.260,259.567 214.309 C 259.567 214.126,259.829 213.974,260.150 213.972 C 260.639 213.967,260.654 213.917,260.242 213.656 C 259.929 213.458,259.674 213.472,259.536 213.694 C 259.201 214.236,258.064 213.853,258.116 213.215 C 258.142 212.902,258.027 212.646,257.861 212.646 C 257.696 212.646,257.594 213.095,257.636 213.644 M87.973 214.129 C 88.475 214.594,89.141 214.970,89.451 214.965 C 89.927 214.956,89.911 214.895,89.351 214.577 C 88.985 214.370,88.611 214.101,88.519 213.981 C 88.428 213.860,88.062 213.654,87.707 213.522 C 87.227 213.345,87.295 213.501,87.973 214.129 M202.601 214.687 C 202.333 215.347,204.123 217.237,204.476 216.666 C 204.599 216.467,204.467 216.306,204.179 216.306 C 203.894 216.306,203.661 216.073,203.661 215.787 C 203.661 215.502,203.522 215.354,203.352 215.460 C 203.182 215.565,202.993 215.311,202.933 214.897 C 202.844 214.291,202.779 214.250,202.601 214.687 M262.759 215.474 C 262.460 215.932,261.993 216.306,261.723 216.306 C 261.452 216.306,261.231 216.456,261.231 216.639 C 261.231 217.209,261.771 217.007,262.683 216.094 C 263.166 215.612,263.561 215.088,263.561 214.930 C 263.561 214.447,263.330 214.604,262.759 215.474 M274.542 215.004 L 272.712 215.199 274.598 215.254 C 275.763 215.287,276.540 215.467,276.632 215.724 C 276.714 215.953,276.864 216.065,276.966 215.973 C 277.628 215.375,276.246 214.822,274.542 215.004 M225.634 215.557 C 225.629 215.969,225.512 216.288,225.374 216.267 C 224.734 216.166,224.504 216.345,224.929 216.614 C 225.638 217.062,226.427 216.153,225.986 215.396 C 225.679 214.868,225.643 214.885,225.634 215.557 M227.704 215.220 C 228.573 215.288,229.285 215.486,229.285 215.659 C 229.285 215.832,229.430 215.973,229.607 215.973 C 229.784 215.973,229.843 215.749,229.738 215.474 C 229.597 215.108,229.089 214.991,227.835 215.035 L 226.123 215.095 227.704 215.220 M269.223 215.724 C 269.227 216.329,269.290 216.377,269.551 215.973 C 269.968 215.328,269.968 214.975,269.551 214.975 C 269.368 214.975,269.220 215.312,269.223 215.724 M279.867 215.327 C 279.867 215.521,279.719 215.588,279.538 215.477 C 279.345 215.357,279.296 215.501,279.420 215.823 C 279.540 216.135,279.430 216.501,279.167 216.667 C 278.817 216.889,278.888 216.963,279.451 216.967 C 280.062 216.971,280.200 216.788,280.200 215.973 C 280.200 215.424,280.125 214.975,280.033 214.975 C 279.942 214.975,279.867 215.134,279.867 215.327 M222.209 216.271 C 222.093 216.716,222.203 216.878,222.586 216.821 C 222.884 216.778,223.091 216.644,223.045 216.524 C 222.999 216.404,222.962 216.156,222.962 215.973 C 222.962 215.388,222.380 215.618,222.209 216.271 M232.705 216.325 C 232.732 216.681,232.947 216.972,233.182 216.972 C 233.765 216.972,233.727 216.089,233.134 215.862 C 232.813 215.738,232.672 215.890,232.705 216.325 M271.977 216.274 C 271.644 216.808,271.671 216.895,272.147 216.825 C 272.458 216.780,272.761 216.495,272.820 216.192 C 272.965 215.445,272.464 215.494,271.977 216.274 M276.206 216.568 C 276.206 216.712,276.509 216.853,276.879 216.881 C 277.249 216.909,277.465 216.791,277.359 216.619 C 277.125 216.241,276.206 216.200,276.206 216.568 M205.120 217.211 C 205.449 217.540,207.321 217.560,207.321 217.235 C 207.321 217.090,206.772 216.972,206.101 216.972 C 205.430 216.972,204.988 217.079,205.120 217.211 M179.416 218.200 C 179.169 218.464,179.066 218.778,179.186 218.897 C 179.306 219.017,179.508 218.955,179.635 218.759 C 179.763 218.563,180.084 218.333,180.349 218.247 C 180.770 218.112,180.770 218.068,180.347 217.906 C 180.081 217.804,179.662 217.936,179.416 218.200 M99.168 219.249 C 99.168 219.400,99.465 219.501,99.827 219.474 C 100.813 219.402,100.916 219.120,99.984 219.043 C 99.535 219.006,99.168 219.099,99.168 219.249 " stroke="none" fill="#5c5c5c" fill-rule="evenodd"></path></g></svg>